G04 #@! TF.GenerationSoftware,KiCad,Pcbnew,7.0.8*
G04 #@! TF.CreationDate,2024-03-08T23:23:19+05:00*
G04 #@! TF.ProjectId,Ws2812 PCB,57733238-3132-4205-9043-422e6b696361,1*
G04 #@! TF.SameCoordinates,Original*
G04 #@! TF.FileFunction,Soldermask,Top*
G04 #@! TF.FilePolarity,Negative*
%FSLAX46Y46*%
G04 Gerber Fmt 4.6, Leading zero omitted, Abs format (unit mm)*
G04 Created by KiCad (PCBNEW 7.0.8) date 2024-03-08 23:23:19*
%MOMM*%
%LPD*%
G01*
G04 APERTURE LIST*
G04 Aperture macros list*
%AMRoundRect*
0 Rectangle with rounded corners*
0 $1 Rounding radius*
0 $2 $3 $4 $5 $6 $7 $8 $9 X,Y pos of 4 corners*
0 Add a 4 corners polygon primitive as box body*
4,1,4,$2,$3,$4,$5,$6,$7,$8,$9,$2,$3,0*
0 Add four circle primitives for the rounded corners*
1,1,$1+$1,$2,$3*
1,1,$1+$1,$4,$5*
1,1,$1+$1,$6,$7*
1,1,$1+$1,$8,$9*
0 Add four rect primitives between the rounded corners*
20,1,$1+$1,$2,$3,$4,$5,0*
20,1,$1+$1,$4,$5,$6,$7,0*
20,1,$1+$1,$6,$7,$8,$9,0*
20,1,$1+$1,$8,$9,$2,$3,0*%
%AMHorizOval*
0 Thick line with rounded ends*
0 $1 width*
0 $2 $3 position (X,Y) of the first rounded end (center of the circle)*
0 $4 $5 position (X,Y) of the second rounded end (center of the circle)*
0 Add line between two ends*
20,1,$1,$2,$3,$4,$5,0*
0 Add two circle primitives to create the rounded ends*
1,1,$1,$2,$3*
1,1,$1,$4,$5*%
%AMRotRect*
0 Rectangle, with rotation*
0 The origin of the aperture is its center*
0 $1 length*
0 $2 width*
0 $3 Rotation angle, in degrees counterclockwise*
0 Add horizontal line*
21,1,$1,$2,0,0,$3*%
G04 Aperture macros list end*
%ADD10C,3.200000*%
%ADD11C,1.879600*%
%ADD12HorizOval,1.879600X-0.769897X-0.444500X0.769897X0.444500X0*%
%ADD13O,1.879600X3.657600*%
%ADD14R,1.500000X0.900000*%
%ADD15HorizOval,1.879600X-0.769897X0.444500X0.769897X-0.444500X0*%
%ADD16O,3.657600X1.879600*%
%ADD17HorizOval,1.879600X0.628618X0.628618X-0.628618X-0.628618X0*%
%ADD18HorizOval,1.879600X0.769897X-0.444500X-0.769897X0.444500X0*%
%ADD19HorizOval,1.879600X-0.628618X-0.628618X0.628618X0.628618X0*%
%ADD20HorizOval,1.879600X0.769897X0.444500X-0.769897X-0.444500X0*%
%ADD21RoundRect,0.225000X-0.319856X-0.104006X0.069856X-0.329006X0.319856X0.104006X-0.069856X0.329006X0*%
%ADD22HorizOval,1.879600X0.628618X-0.628618X-0.628618X0.628618X0*%
%ADD23RotRect,1.500000X0.900000X240.000000*%
%ADD24RoundRect,0.200000X0.275000X-0.200000X0.275000X0.200000X-0.275000X0.200000X-0.275000X-0.200000X0*%
%ADD25HorizOval,1.879600X-0.628618X0.628618X0.628618X-0.628618X0*%
%ADD26RotRect,1.500000X0.900000X120.000000*%
%ADD27RoundRect,0.225000X0.250000X-0.225000X0.250000X0.225000X-0.250000X0.225000X-0.250000X-0.225000X0*%
%ADD28RoundRect,0.225000X0.069856X0.329006X-0.319856X0.104006X-0.069856X-0.329006X0.319856X-0.104006X0*%
G04 APERTURE END LIST*
D10*
G04 #@! TO.C,REF\u002A\u002A*
X121059315Y-79775000D03*
G04 #@! TD*
D11*
G04 #@! TO.C,J11*
X130495000Y-72450000D03*
D12*
X131945593Y-71612500D03*
G04 #@! TD*
D11*
G04 #@! TO.C,J13*
X118945000Y-91368000D03*
D13*
X118945000Y-93043000D03*
G04 #@! TD*
D14*
G04 #@! TO.C,LED1*
X123509315Y-72350000D03*
X123509315Y-75650000D03*
X118609315Y-75650000D03*
X118609315Y-72350000D03*
G04 #@! TD*
D11*
G04 #@! TO.C,J12*
X130345000Y-87200000D03*
D15*
X131795593Y-88037500D03*
G04 #@! TD*
D11*
G04 #@! TO.C,J4*
X107345000Y-79750000D03*
D16*
X105670000Y-79750000D03*
G04 #@! TD*
D11*
G04 #@! TO.C,J2*
X114370000Y-91925000D03*
D17*
X113185596Y-93109404D03*
G04 #@! TD*
D11*
G04 #@! TO.C,J16*
X122770000Y-91368000D03*
D13*
X122770000Y-93043000D03*
G04 #@! TD*
D11*
G04 #@! TO.C,J9*
X122745000Y-68107000D03*
D13*
X122745000Y-66432000D03*
G04 #@! TD*
D11*
G04 #@! TO.C,J18*
X111795000Y-72250000D03*
D18*
X110344407Y-71412500D03*
G04 #@! TD*
D11*
G04 #@! TO.C,J10*
X118970000Y-68107000D03*
D13*
X118970000Y-66432000D03*
G04 #@! TD*
D11*
G04 #@! TO.C,J6*
X127613489Y-67606511D03*
D19*
X128797893Y-66422107D03*
G04 #@! TD*
D11*
G04 #@! TO.C,J8*
X111795593Y-87262500D03*
D20*
X110345000Y-88100000D03*
G04 #@! TD*
D21*
G04 #@! TO.C,C1*
X128391170Y-79562500D03*
X127048830Y-78787500D03*
G04 #@! TD*
D11*
G04 #@! TO.C,J3*
X114526511Y-67631511D03*
D22*
X113342107Y-66447107D03*
G04 #@! TD*
D11*
G04 #@! TO.C,J1*
X134720000Y-79800000D03*
D16*
X136395000Y-79800000D03*
G04 #@! TD*
D11*
G04 #@! TO.C,J7*
X132295000Y-75450000D03*
D12*
X133745593Y-74612500D03*
G04 #@! TD*
D23*
G04 #@! TO.C,LED3*
X128648942Y-81875000D03*
X125791058Y-80225000D03*
X123341058Y-84468524D03*
X126198942Y-86118524D03*
G04 #@! TD*
D24*
G04 #@! TO.C,R1*
X125470000Y-73175000D03*
X125470000Y-74825000D03*
G04 #@! TD*
D11*
G04 #@! TO.C,J14*
X109845000Y-75500000D03*
D18*
X108394407Y-74662500D03*
G04 #@! TD*
D11*
G04 #@! TO.C,J5*
X127538489Y-91868489D03*
D25*
X128722893Y-93052893D03*
G04 #@! TD*
D26*
G04 #@! TO.C,LED2*
X116012116Y-86118524D03*
X118870000Y-84468524D03*
X116420000Y-80225000D03*
X113562116Y-81875000D03*
G04 #@! TD*
D11*
G04 #@! TO.C,J15*
X109680245Y-83809000D03*
D20*
X108229652Y-84646500D03*
G04 #@! TD*
D27*
G04 #@! TO.C,C3*
X116645000Y-73225000D03*
X116645000Y-74775000D03*
G04 #@! TD*
D28*
G04 #@! TO.C,C2*
X118773830Y-87037500D03*
X120116170Y-86262500D03*
G04 #@! TD*
D11*
G04 #@! TO.C,J17*
X132170000Y-83900000D03*
D15*
X133620593Y-84737500D03*
G04 #@! TD*
M02*
