G04 #@! TF.GenerationSoftware,KiCad,Pcbnew,7.0.8*
G04 #@! TF.CreationDate,2024-03-08T23:23:19+05:00*
G04 #@! TF.ProjectId,Ws2812 PCB,57733238-3132-4205-9043-422e6b696361,1*
G04 #@! TF.SameCoordinates,Original*
G04 #@! TF.FileFunction,Copper,L1,Top*
G04 #@! TF.FilePolarity,Positive*
%FSLAX46Y46*%
G04 Gerber Fmt 4.6, Leading zero omitted, Abs format (unit mm)*
G04 Created by KiCad (PCBNEW 7.0.8) date 2024-03-08 23:23:19*
%MOMM*%
%LPD*%
G01*
G04 APERTURE LIST*
G04 Aperture macros list*
%AMRoundRect*
0 Rectangle with rounded corners*
0 $1 Rounding radius*
0 $2 $3 $4 $5 $6 $7 $8 $9 X,Y pos of 4 corners*
0 Add a 4 corners polygon primitive as box body*
4,1,4,$2,$3,$4,$5,$6,$7,$8,$9,$2,$3,0*
0 Add four circle primitives for the rounded corners*
1,1,$1+$1,$2,$3*
1,1,$1+$1,$4,$5*
1,1,$1+$1,$6,$7*
1,1,$1+$1,$8,$9*
0 Add four rect primitives between the rounded corners*
20,1,$1+$1,$2,$3,$4,$5,0*
20,1,$1+$1,$4,$5,$6,$7,0*
20,1,$1+$1,$6,$7,$8,$9,0*
20,1,$1+$1,$8,$9,$2,$3,0*%
%AMHorizOval*
0 Thick line with rounded ends*
0 $1 width*
0 $2 $3 position (X,Y) of the first rounded end (center of the circle)*
0 $4 $5 position (X,Y) of the second rounded end (center of the circle)*
0 Add line between two ends*
20,1,$1,$2,$3,$4,$5,0*
0 Add two circle primitives to create the rounded ends*
1,1,$1,$2,$3*
1,1,$1,$4,$5*%
%AMRotRect*
0 Rectangle, with rotation*
0 The origin of the aperture is its center*
0 $1 length*
0 $2 width*
0 $3 Rotation angle, in degrees counterclockwise*
0 Add horizontal line*
21,1,$1,$2,0,0,$3*%
G04 Aperture macros list end*
G04 #@! TA.AperFunction,ComponentPad*
%ADD10C,1.778000*%
G04 #@! TD*
G04 #@! TA.AperFunction,ComponentPad*
%ADD11HorizOval,1.778000X-0.769897X-0.444500X0.769897X0.444500X0*%
G04 #@! TD*
G04 #@! TA.AperFunction,ComponentPad*
%ADD12O,1.778000X3.556000*%
G04 #@! TD*
G04 #@! TA.AperFunction,SMDPad,CuDef*
%ADD13R,1.500000X0.900000*%
G04 #@! TD*
G04 #@! TA.AperFunction,ComponentPad*
%ADD14HorizOval,1.778000X-0.769897X0.444500X0.769897X-0.444500X0*%
G04 #@! TD*
G04 #@! TA.AperFunction,ComponentPad*
%ADD15O,3.556000X1.778000*%
G04 #@! TD*
G04 #@! TA.AperFunction,ComponentPad*
%ADD16HorizOval,1.778000X0.628618X0.628618X-0.628618X-0.628618X0*%
G04 #@! TD*
G04 #@! TA.AperFunction,ComponentPad*
%ADD17HorizOval,1.778000X0.769897X-0.444500X-0.769897X0.444500X0*%
G04 #@! TD*
G04 #@! TA.AperFunction,ComponentPad*
%ADD18HorizOval,1.778000X-0.628618X-0.628618X0.628618X0.628618X0*%
G04 #@! TD*
G04 #@! TA.AperFunction,ComponentPad*
%ADD19HorizOval,1.778000X0.769897X0.444500X-0.769897X-0.444500X0*%
G04 #@! TD*
G04 #@! TA.AperFunction,SMDPad,CuDef*
%ADD20RoundRect,0.225000X-0.319856X-0.104006X0.069856X-0.329006X0.319856X0.104006X-0.069856X0.329006X0*%
G04 #@! TD*
G04 #@! TA.AperFunction,ComponentPad*
%ADD21HorizOval,1.778000X0.628618X-0.628618X-0.628618X0.628618X0*%
G04 #@! TD*
G04 #@! TA.AperFunction,SMDPad,CuDef*
%ADD22RotRect,1.500000X0.900000X240.000000*%
G04 #@! TD*
G04 #@! TA.AperFunction,SMDPad,CuDef*
%ADD23RoundRect,0.200000X0.275000X-0.200000X0.275000X0.200000X-0.275000X0.200000X-0.275000X-0.200000X0*%
G04 #@! TD*
G04 #@! TA.AperFunction,ComponentPad*
%ADD24HorizOval,1.778000X-0.628618X0.628618X0.628618X-0.628618X0*%
G04 #@! TD*
G04 #@! TA.AperFunction,SMDPad,CuDef*
%ADD25RotRect,1.500000X0.900000X120.000000*%
G04 #@! TD*
G04 #@! TA.AperFunction,SMDPad,CuDef*
%ADD26RoundRect,0.225000X0.250000X-0.225000X0.250000X0.225000X-0.250000X0.225000X-0.250000X-0.225000X0*%
G04 #@! TD*
G04 #@! TA.AperFunction,SMDPad,CuDef*
%ADD27RoundRect,0.225000X0.069856X0.329006X-0.319856X0.104006X-0.069856X-0.329006X0.319856X-0.104006X0*%
G04 #@! TD*
G04 #@! TA.AperFunction,ViaPad*
%ADD28C,0.800000*%
G04 #@! TD*
G04 #@! TA.AperFunction,Conductor*
%ADD29C,0.508000*%
G04 #@! TD*
G04 #@! TA.AperFunction,Conductor*
%ADD30C,0.750000*%
G04 #@! TD*
G04 APERTURE END LIST*
D10*
G04 #@! TO.P,J11,1,Pin_1*
G04 #@! TO.N,DIN*
X130495000Y-72450000D03*
D11*
X131945593Y-71612500D03*
G04 #@! TD*
D10*
G04 #@! TO.P,J13,1,Pin_1*
G04 #@! TO.N,DIN*
X118945000Y-91368000D03*
D12*
X118945000Y-93043000D03*
G04 #@! TD*
D13*
G04 #@! TO.P,LED1,4,DIN*
G04 #@! TO.N,Net-(LED1-DIN)*
X123509315Y-72350000D03*
G04 #@! TO.P,LED1,3,VSS*
G04 #@! TO.N,GND*
X123509315Y-75650000D03*
G04 #@! TO.P,LED1,2,DOUT*
G04 #@! TO.N,Net-(LED1-DOUT)*
X118609315Y-75650000D03*
G04 #@! TO.P,LED1,1,VDD*
G04 #@! TO.N,VCC*
X118609315Y-72350000D03*
G04 #@! TD*
D10*
G04 #@! TO.P,J12,1,Pin_1*
G04 #@! TO.N,DIN*
X130345000Y-87200000D03*
D14*
X131795593Y-88037500D03*
G04 #@! TD*
D10*
G04 #@! TO.P,J4,1,Pin_1*
G04 #@! TO.N,VCC*
X107345000Y-79750000D03*
D15*
X105670000Y-79750000D03*
G04 #@! TD*
D10*
G04 #@! TO.P,J2,1,Pin_1*
G04 #@! TO.N,GND*
X114370000Y-91925000D03*
D16*
X113185596Y-93109404D03*
G04 #@! TD*
D10*
G04 #@! TO.P,J16,1,Pin_1*
G04 #@! TO.N,DOUT*
X122770000Y-91368000D03*
D12*
X122770000Y-93043000D03*
G04 #@! TD*
D10*
G04 #@! TO.P,J9,1,Pin_1*
G04 #@! TO.N,DOUT*
X122745000Y-68107000D03*
D12*
X122745000Y-66432000D03*
G04 #@! TD*
D10*
G04 #@! TO.P,J18,1,Pin_1*
G04 #@! TO.N,DOUT*
X111795000Y-72250000D03*
D17*
X110344407Y-71412500D03*
G04 #@! TD*
D10*
G04 #@! TO.P,J10,1,Pin_1*
G04 #@! TO.N,DIN*
X118970000Y-68107000D03*
D12*
X118970000Y-66432000D03*
G04 #@! TD*
D10*
G04 #@! TO.P,J6,1,Pin_1*
G04 #@! TO.N,VCC*
X127613489Y-67606511D03*
D18*
X128797893Y-66422107D03*
G04 #@! TD*
D10*
G04 #@! TO.P,J8,1,Pin_1*
G04 #@! TO.N,DOUT*
X111795593Y-87262500D03*
D19*
X110345000Y-88100000D03*
G04 #@! TD*
D20*
G04 #@! TO.P,C1,1*
G04 #@! TO.N,VCC*
X128391170Y-79562500D03*
G04 #@! TO.P,C1,2*
G04 #@! TO.N,GND*
X127048830Y-78787500D03*
G04 #@! TD*
D10*
G04 #@! TO.P,J3,1,Pin_1*
G04 #@! TO.N,GND*
X114526511Y-67631511D03*
D21*
X113342107Y-66447107D03*
G04 #@! TD*
D10*
G04 #@! TO.P,J1,1,Pin_1*
G04 #@! TO.N,GND*
X134720000Y-79800000D03*
D15*
X136395000Y-79800000D03*
G04 #@! TD*
D10*
G04 #@! TO.P,J7,1,Pin_1*
G04 #@! TO.N,DOUT*
X132295000Y-75450000D03*
D11*
X133745593Y-74612500D03*
G04 #@! TD*
D22*
G04 #@! TO.P,LED3,1,VDD*
G04 #@! TO.N,VCC*
X128648942Y-81875000D03*
G04 #@! TO.P,LED3,2,DOUT*
G04 #@! TO.N,DOUT*
X125791058Y-80225000D03*
G04 #@! TO.P,LED3,3,VSS*
G04 #@! TO.N,GND*
X123341058Y-84468524D03*
G04 #@! TO.P,LED3,4,DIN*
G04 #@! TO.N,Net-(LED2-DOUT)*
X126198942Y-86118524D03*
G04 #@! TD*
D23*
G04 #@! TO.P,R1,1*
G04 #@! TO.N,Net-(LED1-DIN)*
X125470000Y-73175000D03*
G04 #@! TO.P,R1,2*
G04 #@! TO.N,DIN*
X125470000Y-74825000D03*
G04 #@! TD*
D10*
G04 #@! TO.P,J14,1,Pin_1*
G04 #@! TO.N,DIN*
X109845000Y-75500000D03*
D17*
X108394407Y-74662500D03*
G04 #@! TD*
D10*
G04 #@! TO.P,J5,1,Pin_1*
G04 #@! TO.N,VCC*
X127538489Y-91868489D03*
D24*
X128722893Y-93052893D03*
G04 #@! TD*
D25*
G04 #@! TO.P,LED2,1,VDD*
G04 #@! TO.N,VCC*
X116012116Y-86118524D03*
G04 #@! TO.P,LED2,2,DOUT*
G04 #@! TO.N,Net-(LED2-DOUT)*
X118870000Y-84468524D03*
G04 #@! TO.P,LED2,3,VSS*
G04 #@! TO.N,GND*
X116420000Y-80225000D03*
G04 #@! TO.P,LED2,4,DIN*
G04 #@! TO.N,Net-(LED1-DOUT)*
X113562116Y-81875000D03*
G04 #@! TD*
D10*
G04 #@! TO.P,J15,1,Pin_1*
G04 #@! TO.N,DIN*
X109680245Y-83809000D03*
D19*
X108229652Y-84646500D03*
G04 #@! TD*
D26*
G04 #@! TO.P,C3,1*
G04 #@! TO.N,VCC*
X116645000Y-73225000D03*
G04 #@! TO.P,C3,2*
G04 #@! TO.N,GND*
X116645000Y-74775000D03*
G04 #@! TD*
D27*
G04 #@! TO.P,C2,1*
G04 #@! TO.N,VCC*
X118773830Y-87037500D03*
G04 #@! TO.P,C2,2*
G04 #@! TO.N,GND*
X120116170Y-86262500D03*
G04 #@! TD*
D10*
G04 #@! TO.P,J17,1,Pin_1*
G04 #@! TO.N,DOUT*
X132170000Y-83900000D03*
D14*
X133620593Y-84737500D03*
G04 #@! TD*
D28*
G04 #@! TO.N,GND*
X116695000Y-84400000D03*
X122270000Y-84500000D03*
X120645000Y-76450000D03*
X113220000Y-70375000D03*
X118245000Y-70600000D03*
X120795000Y-72450000D03*
X115570000Y-76375000D03*
X126270000Y-83800000D03*
X124745000Y-76350000D03*
X125295000Y-69300000D03*
X120920000Y-87125000D03*
X124420000Y-83825000D03*
X123445000Y-85750000D03*
X120770000Y-69700000D03*
X117145000Y-79550000D03*
X126095000Y-77875000D03*
X111720000Y-80350000D03*
X128320000Y-70950000D03*
G04 #@! TO.N,DOUT*
X124845000Y-80050000D03*
X114445000Y-84275000D03*
G04 #@! TO.N,DIN*
X126170000Y-75525000D03*
G04 #@! TD*
D29*
G04 #@! TO.N,DOUT*
X120045000Y-82900000D02*
X122395000Y-82900000D01*
X122395000Y-82900000D02*
X123570000Y-81725000D01*
X119495000Y-82350000D02*
X120045000Y-82900000D01*
X123570000Y-81725000D02*
X124291058Y-81725000D01*
X114445000Y-84275000D02*
X116370000Y-82350000D01*
X116370000Y-82350000D02*
X119495000Y-82350000D01*
X124291058Y-81725000D02*
X125791058Y-80225000D01*
X125616058Y-80050000D02*
X125791058Y-80225000D01*
X124845000Y-80050000D02*
X125616058Y-80050000D01*
D30*
G04 #@! TO.N,VCC*
X128345000Y-82178942D02*
X128648942Y-81875000D01*
X128345000Y-91061978D02*
X128345000Y-82178942D01*
X127538489Y-91868489D02*
X128345000Y-91061978D01*
D29*
G04 #@! TO.N,GND*
X126270000Y-82225000D02*
X126270000Y-83800000D01*
X127048830Y-81446170D02*
X126270000Y-82225000D01*
X127048830Y-78787500D02*
X127048830Y-81446170D01*
X122301476Y-84468524D02*
X122270000Y-84500000D01*
X123341058Y-84468524D02*
X122301476Y-84468524D01*
X121445000Y-75650000D02*
X120645000Y-76450000D01*
X123509315Y-75650000D02*
X121445000Y-75650000D01*
G04 #@! TO.N,Net-(LED1-DIN)*
X124645000Y-72350000D02*
X123509315Y-72350000D01*
X125470000Y-73175000D02*
X124645000Y-72350000D01*
G04 #@! TO.N,GND*
X125295000Y-69300000D02*
X124520000Y-70075000D01*
X124520000Y-70075000D02*
X121145000Y-70075000D01*
X121145000Y-70075000D02*
X120770000Y-69700000D01*
G04 #@! TO.N,Net-(LED1-DOUT)*
X116259315Y-78000000D02*
X118609315Y-75650000D01*
X115120000Y-78000000D02*
X116259315Y-78000000D01*
X113562116Y-79557884D02*
X115120000Y-78000000D01*
X113562116Y-81875000D02*
X113562116Y-79557884D01*
G04 #@! TO.N,GND*
X124045000Y-75650000D02*
X122509315Y-75650000D01*
X124745000Y-76350000D02*
X124045000Y-75650000D01*
X122509315Y-75650000D02*
X120795000Y-73935685D01*
G04 #@! TO.N,DIN*
X126170000Y-75525000D02*
X125470000Y-74825000D01*
G04 #@! TO.N,GND*
X117484315Y-73935685D02*
X116645000Y-74775000D01*
X120795000Y-73935685D02*
X117484315Y-73935685D01*
X116645000Y-75300000D02*
X115570000Y-76375000D01*
X116645000Y-74775000D02*
X116645000Y-75300000D01*
D30*
G04 #@! TO.N,VCC*
X117520000Y-72350000D02*
X116645000Y-73225000D01*
X118609315Y-72350000D02*
X117520000Y-72350000D01*
X116420000Y-73225000D02*
X116645000Y-73225000D01*
X109895000Y-79750000D02*
X116420000Y-73225000D01*
X107345000Y-79750000D02*
X109895000Y-79750000D01*
D29*
G04 #@! TO.N,DIN*
X111470000Y-75450000D02*
X118645000Y-68275000D01*
X118645000Y-68275000D02*
X118945000Y-68275000D01*
X109770000Y-75450000D02*
X111470000Y-75450000D01*
D30*
G04 #@! TO.N,VCC*
X118609315Y-72350000D02*
X119884315Y-71075000D01*
X119884315Y-71075000D02*
X126295000Y-71075000D01*
X128648942Y-81875000D02*
X128648942Y-79820272D01*
X118773830Y-87037500D02*
X116931092Y-87037500D01*
X126295000Y-71875000D02*
X126295000Y-71075000D01*
X127363489Y-91868489D02*
X127538489Y-91868489D01*
X120961330Y-89225000D02*
X124720000Y-89225000D01*
X128391170Y-79562500D02*
X128391170Y-73971170D01*
X128648942Y-79820272D02*
X128391170Y-79562500D01*
X126295000Y-71075000D02*
X127595000Y-69775000D01*
X116931092Y-87037500D02*
X116012116Y-86118524D01*
X124720000Y-89225000D02*
X127363489Y-91868489D01*
X127595000Y-69775000D02*
X127595000Y-68275000D01*
X128391170Y-73971170D02*
X126295000Y-71875000D01*
X118773830Y-87037500D02*
X120961330Y-89225000D01*
D29*
G04 #@! TO.N,GND*
X127048830Y-78787500D02*
X126136330Y-77875000D01*
X116420000Y-80225000D02*
X117095000Y-79550000D01*
X117095000Y-79550000D02*
X117145000Y-79550000D01*
X123776476Y-84468524D02*
X123341058Y-84468524D01*
X120795000Y-72450000D02*
X120795000Y-73935685D01*
X123445000Y-85750000D02*
X123445000Y-84572466D01*
X124420000Y-83825000D02*
X123776476Y-84468524D01*
X123445000Y-84572466D02*
X123341058Y-84468524D01*
X120116170Y-86262500D02*
X120920000Y-87066330D01*
X120920000Y-87066330D02*
X120920000Y-87125000D01*
X126136330Y-77875000D02*
X126095000Y-77875000D01*
G04 #@! TO.N,DOUT*
X121395000Y-91225000D02*
X119545000Y-89375000D01*
X132295000Y-83775000D02*
X132295000Y-75707000D01*
X119545000Y-89375000D02*
X116620000Y-89375000D01*
X114445000Y-87200000D02*
X114445000Y-84275000D01*
X116620000Y-89375000D02*
X114445000Y-87200000D01*
X122770000Y-91225000D02*
X121395000Y-91225000D01*
X132170000Y-83900000D02*
X132295000Y-83775000D01*
G04 #@! TO.N,DIN*
X117095000Y-91225000D02*
X113395000Y-87525000D01*
X113395000Y-87525000D02*
X113395000Y-85525000D01*
X130345000Y-87125000D02*
X130345000Y-72257000D01*
X111645000Y-83775000D02*
X109845000Y-83775000D01*
X113395000Y-85525000D02*
X111645000Y-83775000D01*
X130345000Y-72257000D02*
X130238000Y-72150000D01*
X118995000Y-91225000D02*
X117095000Y-91225000D01*
G04 #@! TO.N,Net-(LED2-DOUT)*
X124992466Y-87325000D02*
X126198942Y-86118524D01*
X122895000Y-87325000D02*
X124992466Y-87325000D01*
X120038524Y-84468524D02*
X122895000Y-87325000D01*
X118870000Y-84468524D02*
X120038524Y-84468524D01*
G04 #@! TD*
G04 #@! TA.AperFunction,Conductor*
G04 #@! TO.N,GND*
G36*
X112978690Y-87914137D02*
G01*
X113010285Y-87932165D01*
X113012964Y-87934056D01*
X113012966Y-87934058D01*
X113023216Y-87941293D01*
X113047928Y-87962109D01*
X116696210Y-91610392D01*
X116741773Y-91659177D01*
X116778445Y-91681477D01*
X116786470Y-91686939D01*
X116815747Y-91709140D01*
X116820679Y-91712880D01*
X116832359Y-91717486D01*
X116861294Y-91731859D01*
X116872005Y-91738372D01*
X116872010Y-91738375D01*
X116913347Y-91749957D01*
X116922528Y-91753044D01*
X116962480Y-91768799D01*
X116974963Y-91770082D01*
X117006706Y-91776115D01*
X117018786Y-91779500D01*
X117061715Y-91779500D01*
X117071409Y-91779997D01*
X117086859Y-91781584D01*
X117114109Y-91784386D01*
X117126469Y-91782254D01*
X117158665Y-91779500D01*
X117577235Y-91779500D01*
X117659456Y-91798266D01*
X117725392Y-91850849D01*
X117761984Y-91926832D01*
X117765926Y-91986481D01*
X117756520Y-92087995D01*
X117755500Y-92099006D01*
X117755500Y-92880938D01*
X117736734Y-92963159D01*
X117684151Y-93029095D01*
X117608168Y-93065687D01*
X117566000Y-93070438D01*
X113476747Y-93070438D01*
X113394526Y-93051672D01*
X113328590Y-92999089D01*
X113312635Y-92975688D01*
X111148992Y-89228146D01*
X111124134Y-89147557D01*
X111136703Y-89064164D01*
X111184211Y-88994483D01*
X111218347Y-88969288D01*
X111757274Y-88658140D01*
X111892123Y-88562683D01*
X111978212Y-88473899D01*
X112048918Y-88427938D01*
X112079433Y-88419545D01*
X112122510Y-88411493D01*
X112328070Y-88331858D01*
X112515498Y-88215808D01*
X112678410Y-88067294D01*
X112749784Y-87972779D01*
X112814305Y-87918479D01*
X112896002Y-87897548D01*
X112978690Y-87914137D01*
G37*
G04 #@! TD.AperFunction*
G04 #@! TA.AperFunction,Conductor*
G36*
X122351536Y-71769266D02*
G01*
X122417472Y-71821849D01*
X122454064Y-71897832D01*
X122458815Y-71940000D01*
X122458815Y-72844860D01*
X122458816Y-72844874D01*
X122461729Y-72869989D01*
X122461731Y-72869996D01*
X122507106Y-72972761D01*
X122507108Y-72972763D01*
X122507109Y-72972765D01*
X122586550Y-73052206D01*
X122586551Y-73052206D01*
X122586553Y-73052208D01*
X122689320Y-73097584D01*
X122689322Y-73097584D01*
X122689324Y-73097585D01*
X122714450Y-73100500D01*
X124304179Y-73100499D01*
X124304185Y-73100498D01*
X124304189Y-73100498D01*
X124314430Y-73099310D01*
X124329306Y-73097585D01*
X124404168Y-73064530D01*
X124486960Y-73048487D01*
X124568517Y-73069955D01*
X124614706Y-73103887D01*
X124638997Y-73128178D01*
X124683866Y-73199587D01*
X124694500Y-73262174D01*
X124694500Y-73422865D01*
X124694502Y-73422888D01*
X124700908Y-73482478D01*
X124700911Y-73482489D01*
X124751202Y-73617328D01*
X124837452Y-73732544D01*
X124837454Y-73732546D01*
X124952669Y-73818796D01*
X124959077Y-73821186D01*
X124962460Y-73822448D01*
X125032938Y-73868765D01*
X125076341Y-73941074D01*
X125084072Y-74025054D01*
X125054600Y-74104072D01*
X124993762Y-74162478D01*
X124962460Y-74177552D01*
X124952670Y-74181203D01*
X124837455Y-74267452D01*
X124837452Y-74267455D01*
X124751202Y-74382670D01*
X124700908Y-74517516D01*
X124694500Y-74577117D01*
X124694500Y-75072865D01*
X124694502Y-75072888D01*
X124700908Y-75132478D01*
X124700911Y-75132489D01*
X124751202Y-75267328D01*
X124837452Y-75382544D01*
X124837455Y-75382547D01*
X124952670Y-75468797D01*
X125087516Y-75519091D01*
X125096975Y-75520107D01*
X125147127Y-75525500D01*
X125296533Y-75525499D01*
X125378753Y-75544265D01*
X125444689Y-75596847D01*
X125481282Y-75672830D01*
X125484651Y-75692156D01*
X125484858Y-75693865D01*
X125484860Y-75693871D01*
X125545181Y-75852929D01*
X125545182Y-75852930D01*
X125641817Y-75992929D01*
X125699799Y-76044296D01*
X125769149Y-76105735D01*
X125769151Y-76105736D01*
X125919772Y-76184789D01*
X125919774Y-76184790D01*
X126084935Y-76225498D01*
X126084937Y-76225498D01*
X126084944Y-76225500D01*
X126084947Y-76225500D01*
X126255053Y-76225500D01*
X126255056Y-76225500D01*
X126420225Y-76184790D01*
X126570852Y-76105734D01*
X126698183Y-75992929D01*
X126794818Y-75852930D01*
X126855140Y-75693872D01*
X126873306Y-75544265D01*
X126875645Y-75525002D01*
X126875645Y-75524997D01*
X126855141Y-75356135D01*
X126855140Y-75356134D01*
X126855140Y-75356128D01*
X126794818Y-75197070D01*
X126698183Y-75057071D01*
X126591328Y-74962406D01*
X126570850Y-74944264D01*
X126570848Y-74944263D01*
X126420227Y-74865210D01*
X126420228Y-74865210D01*
X126389647Y-74857673D01*
X126314307Y-74819775D01*
X126262871Y-74752940D01*
X126245499Y-74673680D01*
X126245499Y-74577133D01*
X126245498Y-74577127D01*
X126239091Y-74517517D01*
X126188796Y-74382669D01*
X126121635Y-74292954D01*
X126102547Y-74267455D01*
X126102544Y-74267452D01*
X125987327Y-74181201D01*
X125977535Y-74177549D01*
X125907057Y-74131231D01*
X125863656Y-74058921D01*
X125855927Y-73974940D01*
X125885401Y-73895923D01*
X125946241Y-73837519D01*
X125977544Y-73822445D01*
X125987331Y-73818796D01*
X126102546Y-73732546D01*
X126188796Y-73617331D01*
X126204365Y-73575590D01*
X126239091Y-73482483D01*
X126245499Y-73422882D01*
X126245500Y-73422873D01*
X126245499Y-73238292D01*
X126264265Y-73156074D01*
X126316847Y-73090138D01*
X126392830Y-73053545D01*
X126477166Y-73053545D01*
X126553150Y-73090136D01*
X126568996Y-73104297D01*
X127660167Y-74195468D01*
X127705036Y-74266877D01*
X127715670Y-74329465D01*
X127715670Y-79180723D01*
X127696904Y-79262944D01*
X127690282Y-79275473D01*
X127595650Y-79439380D01*
X127595642Y-79439395D01*
X127562204Y-79517590D01*
X127562204Y-79517593D01*
X127540908Y-79660464D01*
X127540908Y-79660468D01*
X127540908Y-79660469D01*
X127558948Y-79803794D01*
X127614987Y-79936938D01*
X127614989Y-79936940D01*
X127704852Y-80050002D01*
X127704871Y-80050025D01*
X127772933Y-80101031D01*
X127878692Y-80162091D01*
X127940514Y-80219452D01*
X127971325Y-80297957D01*
X127973442Y-80326202D01*
X127973442Y-81493224D01*
X127954676Y-81575445D01*
X127948053Y-81587976D01*
X127915978Y-81643530D01*
X127885864Y-81682775D01*
X127883791Y-81684847D01*
X127879623Y-81688771D01*
X127835668Y-81727712D01*
X127802293Y-81776062D01*
X127798902Y-81780672D01*
X127762673Y-81826914D01*
X127762672Y-81826915D01*
X127761261Y-81830051D01*
X127744434Y-81859886D01*
X127742483Y-81862712D01*
X127742480Y-81862717D01*
X127721651Y-81917639D01*
X127719462Y-81922924D01*
X127695351Y-81976499D01*
X127695349Y-81976507D01*
X127694732Y-81979873D01*
X127685528Y-82012887D01*
X127684312Y-82016093D01*
X127681569Y-82027224D01*
X127680266Y-82026902D01*
X127660557Y-82085933D01*
X127601559Y-82188122D01*
X127591520Y-82211338D01*
X127591518Y-82211344D01*
X127579431Y-82323035D01*
X127608509Y-82431553D01*
X127632965Y-82464997D01*
X127666350Y-82542444D01*
X127669500Y-82576854D01*
X127669500Y-90489489D01*
X127650734Y-90571710D01*
X127598151Y-90637646D01*
X127522168Y-90674238D01*
X127480000Y-90678989D01*
X127428266Y-90678989D01*
X127309630Y-90701165D01*
X127274562Y-90707721D01*
X127190292Y-90704381D01*
X127115817Y-90664810D01*
X127105745Y-90655444D01*
X125214102Y-88763801D01*
X125210178Y-88759632D01*
X125171234Y-88715672D01*
X125171230Y-88715669D01*
X125171229Y-88715668D01*
X125122859Y-88682281D01*
X125118289Y-88678917D01*
X125072028Y-88642674D01*
X125072027Y-88642673D01*
X125072025Y-88642672D01*
X125068907Y-88641269D01*
X125039040Y-88624424D01*
X125036226Y-88622482D01*
X125036221Y-88622479D01*
X124981290Y-88601646D01*
X124976005Y-88599457D01*
X124922437Y-88575349D01*
X124919078Y-88574734D01*
X124886048Y-88565526D01*
X124882853Y-88564314D01*
X124882846Y-88564312D01*
X124882845Y-88564312D01*
X124856722Y-88561139D01*
X124824511Y-88557228D01*
X124818858Y-88556367D01*
X124761085Y-88545781D01*
X124761082Y-88545781D01*
X124730769Y-88547614D01*
X124702456Y-88549327D01*
X124696740Y-88549500D01*
X121319625Y-88549500D01*
X121237404Y-88530734D01*
X121185628Y-88493997D01*
X119536908Y-86845277D01*
X119506793Y-86806030D01*
X119380648Y-86587541D01*
X119278210Y-86410112D01*
X119278209Y-86410111D01*
X119278207Y-86410107D01*
X119227208Y-86342053D01*
X119227202Y-86342047D01*
X119151790Y-86282110D01*
X119114117Y-86252167D01*
X118980974Y-86196128D01*
X118980973Y-86196127D01*
X118980969Y-86196126D01*
X118837653Y-86178087D01*
X118837645Y-86178087D01*
X118694771Y-86199384D01*
X118616567Y-86232825D01*
X118616559Y-86232829D01*
X118436803Y-86336612D01*
X118356215Y-86361470D01*
X118342053Y-86362000D01*
X117289388Y-86362000D01*
X117207167Y-86343234D01*
X117155391Y-86306497D01*
X116775193Y-85926300D01*
X116745078Y-85887053D01*
X116719587Y-85842901D01*
X116264635Y-85054902D01*
X116249548Y-85034598D01*
X116249546Y-85034596D01*
X116158862Y-84968283D01*
X116158863Y-84968283D01*
X116050343Y-84939206D01*
X115938646Y-84951293D01*
X115915441Y-84961327D01*
X115915426Y-84961335D01*
X115283750Y-85326034D01*
X115203161Y-85350892D01*
X115119768Y-85338323D01*
X115050087Y-85290815D01*
X115007919Y-85217778D01*
X114999500Y-85161922D01*
X114999500Y-84763853D01*
X115018266Y-84681632D01*
X115033040Y-84656210D01*
X115069818Y-84602930D01*
X115130140Y-84443872D01*
X115130141Y-84443864D01*
X115131909Y-84429307D01*
X115160448Y-84349947D01*
X115186030Y-84318150D01*
X115483691Y-84020489D01*
X117800489Y-84020489D01*
X117812577Y-84132183D01*
X117822615Y-84155401D01*
X118612737Y-85523930D01*
X118617482Y-85532147D01*
X118632567Y-85552449D01*
X118632569Y-85552451D01*
X118723253Y-85618764D01*
X118723252Y-85618764D01*
X118723254Y-85618765D01*
X118831773Y-85647842D01*
X118943467Y-85635755D01*
X118966684Y-85625716D01*
X119756758Y-85169565D01*
X119837342Y-85144709D01*
X119920736Y-85157278D01*
X119985501Y-85199682D01*
X122496210Y-87710392D01*
X122541773Y-87759177D01*
X122578445Y-87781477D01*
X122586470Y-87786939D01*
X122620675Y-87812877D01*
X122620679Y-87812880D01*
X122632359Y-87817486D01*
X122661294Y-87831859D01*
X122669987Y-87837145D01*
X122672010Y-87838375D01*
X122713347Y-87849957D01*
X122722528Y-87853044D01*
X122762480Y-87868799D01*
X122774963Y-87870082D01*
X122806706Y-87876115D01*
X122818786Y-87879500D01*
X122861715Y-87879500D01*
X122871409Y-87879997D01*
X122886859Y-87881584D01*
X122914109Y-87884386D01*
X122926469Y-87882254D01*
X122958665Y-87879500D01*
X124983003Y-87879500D01*
X125049701Y-87881779D01*
X125049701Y-87881778D01*
X125049705Y-87881779D01*
X125091429Y-87871610D01*
X125100948Y-87869801D01*
X125143475Y-87863957D01*
X125154981Y-87858958D01*
X125185603Y-87848660D01*
X125197799Y-87845689D01*
X125235219Y-87824648D01*
X125243898Y-87820337D01*
X125283284Y-87803230D01*
X125293019Y-87795309D01*
X125319732Y-87777128D01*
X125330665Y-87770982D01*
X125347496Y-87754151D01*
X125361015Y-87740632D01*
X125368224Y-87734125D01*
X125393978Y-87713173D01*
X125401524Y-87707034D01*
X125408759Y-87696782D01*
X125429570Y-87672075D01*
X125824255Y-87277390D01*
X125895662Y-87232523D01*
X125979467Y-87223081D01*
X126052998Y-87247275D01*
X126102257Y-87275715D01*
X126125475Y-87285755D01*
X126237169Y-87297842D01*
X126345688Y-87268765D01*
X126436374Y-87202450D01*
X126451462Y-87182147D01*
X127246325Y-85805401D01*
X127256365Y-85782183D01*
X127268453Y-85670489D01*
X127239375Y-85561971D01*
X127173060Y-85471284D01*
X127152758Y-85456197D01*
X126837081Y-85273941D01*
X126295631Y-84961335D01*
X126295628Y-84961334D01*
X126295627Y-84961333D01*
X126286698Y-84957472D01*
X126272410Y-84951293D01*
X126160715Y-84939206D01*
X126160712Y-84939206D01*
X126052194Y-84968283D01*
X125961510Y-85034598D01*
X125946426Y-85054895D01*
X125946418Y-85054907D01*
X125232226Y-86291925D01*
X125202111Y-86331171D01*
X124818288Y-86714996D01*
X124746879Y-86759866D01*
X124684291Y-86770500D01*
X123203175Y-86770500D01*
X123120954Y-86751734D01*
X123069178Y-86714997D01*
X120437312Y-84083131D01*
X120391754Y-84034350D01*
X120391747Y-84034344D01*
X120355070Y-84012040D01*
X120347045Y-84006579D01*
X120312845Y-83980644D01*
X120312843Y-83980643D01*
X120301167Y-83976038D01*
X120272234Y-83961668D01*
X120261513Y-83955148D01*
X120228445Y-83945882D01*
X120220176Y-83943565D01*
X120210981Y-83940473D01*
X120171046Y-83924725D01*
X120171039Y-83924724D01*
X120158555Y-83923440D01*
X120126826Y-83917410D01*
X120114741Y-83914024D01*
X120114738Y-83914024D01*
X120071808Y-83914024D01*
X120062123Y-83913527D01*
X120034373Y-83910674D01*
X120019418Y-83909137D01*
X120019411Y-83909137D01*
X120009725Y-83910807D01*
X120007054Y-83911268D01*
X119974856Y-83914024D01*
X119525869Y-83914024D01*
X119443648Y-83895258D01*
X119377712Y-83842675D01*
X119361757Y-83819274D01*
X119340598Y-83782626D01*
X119122519Y-83404902D01*
X119107432Y-83384598D01*
X119107430Y-83384596D01*
X119016746Y-83318283D01*
X119016747Y-83318283D01*
X118908227Y-83289206D01*
X118796530Y-83301293D01*
X118773325Y-83311327D01*
X118773310Y-83311335D01*
X117916184Y-83806198D01*
X117895884Y-83821282D01*
X117895879Y-83821286D01*
X117829567Y-83911970D01*
X117800489Y-84020487D01*
X117800489Y-84020488D01*
X117800489Y-84020489D01*
X115483691Y-84020489D01*
X116544178Y-82960003D01*
X116615587Y-82915134D01*
X116678175Y-82904500D01*
X119186825Y-82904500D01*
X119269046Y-82923266D01*
X119320822Y-82960003D01*
X119646224Y-83285406D01*
X119691187Y-83333550D01*
X119691772Y-83334176D01*
X119728463Y-83356487D01*
X119736477Y-83361943D01*
X119770679Y-83387879D01*
X119782347Y-83392480D01*
X119811287Y-83406854D01*
X119822010Y-83413375D01*
X119863354Y-83424959D01*
X119872544Y-83428050D01*
X119912479Y-83443799D01*
X119924961Y-83445082D01*
X119956708Y-83451115D01*
X119968786Y-83454500D01*
X120011715Y-83454500D01*
X120021409Y-83454997D01*
X120036859Y-83456584D01*
X120064109Y-83459386D01*
X120074443Y-83457604D01*
X120076469Y-83457255D01*
X120108666Y-83454500D01*
X122385537Y-83454500D01*
X122452235Y-83456779D01*
X122452235Y-83456778D01*
X122452239Y-83456779D01*
X122493963Y-83446610D01*
X122503482Y-83444801D01*
X122546009Y-83438957D01*
X122557515Y-83433958D01*
X122588137Y-83423660D01*
X122600333Y-83420689D01*
X122637753Y-83399648D01*
X122646432Y-83395337D01*
X122685818Y-83378230D01*
X122695553Y-83370309D01*
X122722266Y-83352128D01*
X122733199Y-83345982D01*
X122749187Y-83329992D01*
X122763549Y-83315632D01*
X122770758Y-83309125D01*
X122797806Y-83287120D01*
X122804058Y-83282034D01*
X122811293Y-83271782D01*
X122832104Y-83247075D01*
X123744178Y-82335003D01*
X123815587Y-82290134D01*
X123878175Y-82279500D01*
X124281595Y-82279500D01*
X124348293Y-82281779D01*
X124348293Y-82281778D01*
X124348297Y-82281779D01*
X124390021Y-82271610D01*
X124399540Y-82269801D01*
X124442067Y-82263957D01*
X124453573Y-82258958D01*
X124484195Y-82248660D01*
X124496391Y-82245689D01*
X124533811Y-82224648D01*
X124542490Y-82220337D01*
X124581876Y-82203230D01*
X124591611Y-82195309D01*
X124618324Y-82177128D01*
X124629257Y-82170982D01*
X124659616Y-82140621D01*
X124666816Y-82134125D01*
X124667869Y-82133268D01*
X124700116Y-82107034D01*
X124707350Y-82096784D01*
X124728163Y-82072074D01*
X125416372Y-81383866D01*
X125487779Y-81338999D01*
X125571584Y-81329557D01*
X125645116Y-81353753D01*
X125694367Y-81382188D01*
X125694370Y-81382189D01*
X125694373Y-81382191D01*
X125717591Y-81392231D01*
X125829285Y-81404318D01*
X125937804Y-81375241D01*
X126028490Y-81308926D01*
X126043578Y-81288623D01*
X126838441Y-79911877D01*
X126848481Y-79888659D01*
X126860569Y-79776965D01*
X126831491Y-79668447D01*
X126765176Y-79577760D01*
X126744874Y-79562673D01*
X126628527Y-79495500D01*
X125887747Y-79067811D01*
X125887744Y-79067810D01*
X125887743Y-79067809D01*
X125878625Y-79063866D01*
X125864526Y-79057769D01*
X125752831Y-79045682D01*
X125752828Y-79045682D01*
X125644310Y-79074759D01*
X125553626Y-79141074D01*
X125538542Y-79161371D01*
X125538531Y-79161388D01*
X125425060Y-79357925D01*
X125367698Y-79419747D01*
X125289192Y-79450558D01*
X125205092Y-79444255D01*
X125172884Y-79430968D01*
X125095225Y-79390209D01*
X124930064Y-79349501D01*
X124930057Y-79349500D01*
X124930056Y-79349500D01*
X124759944Y-79349500D01*
X124759942Y-79349500D01*
X124759935Y-79349501D01*
X124594774Y-79390209D01*
X124594772Y-79390210D01*
X124444151Y-79469263D01*
X124444149Y-79469264D01*
X124338713Y-79562673D01*
X124328112Y-79572065D01*
X124316815Y-79582073D01*
X124220182Y-79722069D01*
X124220181Y-79722070D01*
X124159860Y-79881128D01*
X124159858Y-79881135D01*
X124139355Y-80049997D01*
X124139355Y-80050002D01*
X124159858Y-80218864D01*
X124159859Y-80218870D01*
X124159860Y-80218872D01*
X124175203Y-80259328D01*
X124220181Y-80377929D01*
X124220182Y-80377930D01*
X124316817Y-80517929D01*
X124376711Y-80570990D01*
X124425810Y-80639560D01*
X124440295Y-80722642D01*
X124417298Y-80803781D01*
X124385046Y-80846829D01*
X124116881Y-81114996D01*
X124045473Y-81159866D01*
X123982884Y-81170500D01*
X123579463Y-81170500D01*
X123512767Y-81168220D01*
X123512754Y-81168222D01*
X123471047Y-81178385D01*
X123461515Y-81180197D01*
X123418995Y-81186041D01*
X123418988Y-81186043D01*
X123407475Y-81191044D01*
X123376862Y-81201338D01*
X123364673Y-81204308D01*
X123364663Y-81204312D01*
X123327247Y-81225349D01*
X123318559Y-81229665D01*
X123279179Y-81246771D01*
X123269443Y-81254692D01*
X123242746Y-81272863D01*
X123231799Y-81279018D01*
X123201442Y-81309374D01*
X123194240Y-81315874D01*
X123160943Y-81342964D01*
X123160937Y-81342971D01*
X123153703Y-81353219D01*
X123132890Y-81377927D01*
X122220822Y-82289997D01*
X122149413Y-82334866D01*
X122086825Y-82345500D01*
X120353176Y-82345500D01*
X120270955Y-82326734D01*
X120219179Y-82289997D01*
X119893788Y-81964606D01*
X119848230Y-81915826D01*
X119848223Y-81915820D01*
X119811546Y-81893516D01*
X119803521Y-81888055D01*
X119792493Y-81879692D01*
X119769321Y-81862120D01*
X119769319Y-81862119D01*
X119757643Y-81857514D01*
X119728710Y-81843144D01*
X119717989Y-81836624D01*
X119681278Y-81826338D01*
X119676652Y-81825041D01*
X119667457Y-81821949D01*
X119627522Y-81806201D01*
X119627515Y-81806200D01*
X119615031Y-81804916D01*
X119583302Y-81798886D01*
X119571217Y-81795500D01*
X119571214Y-81795500D01*
X119528284Y-81795500D01*
X119518599Y-81795003D01*
X119490849Y-81792150D01*
X119475894Y-81790613D01*
X119475887Y-81790613D01*
X119466201Y-81792283D01*
X119463530Y-81792744D01*
X119431332Y-81795500D01*
X116379463Y-81795500D01*
X116312767Y-81793220D01*
X116312754Y-81793222D01*
X116271047Y-81803385D01*
X116261515Y-81805197D01*
X116218995Y-81811041D01*
X116218988Y-81811043D01*
X116207475Y-81816044D01*
X116176862Y-81826338D01*
X116164673Y-81829308D01*
X116164663Y-81829312D01*
X116127247Y-81850349D01*
X116118559Y-81854665D01*
X116079179Y-81871771D01*
X116069443Y-81879692D01*
X116042746Y-81897863D01*
X116031799Y-81904018D01*
X116001442Y-81934374D01*
X115994240Y-81940874D01*
X115960943Y-81967964D01*
X115960937Y-81967971D01*
X115953703Y-81978219D01*
X115932890Y-82002927D01*
X114399122Y-83536696D01*
X114327713Y-83581565D01*
X114310476Y-83586692D01*
X114194772Y-83615210D01*
X114044151Y-83694263D01*
X114044149Y-83694264D01*
X113944410Y-83782626D01*
X113917803Y-83806198D01*
X113916815Y-83807073D01*
X113820182Y-83947069D01*
X113820181Y-83947070D01*
X113759860Y-84106128D01*
X113759858Y-84106135D01*
X113739355Y-84274997D01*
X113739355Y-84275002D01*
X113759858Y-84443864D01*
X113759859Y-84443870D01*
X113759860Y-84443872D01*
X113820182Y-84602930D01*
X113856956Y-84656205D01*
X113888218Y-84734530D01*
X113890500Y-84763853D01*
X113890500Y-84778825D01*
X113871734Y-84861046D01*
X113819151Y-84926982D01*
X113743168Y-84963574D01*
X113658832Y-84963574D01*
X113582849Y-84926982D01*
X113567003Y-84912822D01*
X112043788Y-83389607D01*
X111998230Y-83340826D01*
X111998223Y-83340820D01*
X111961546Y-83318516D01*
X111953521Y-83313055D01*
X111951249Y-83311332D01*
X111919321Y-83287120D01*
X111919319Y-83287119D01*
X111907643Y-83282514D01*
X111878710Y-83268144D01*
X111867989Y-83261624D01*
X111834921Y-83252358D01*
X111826652Y-83250041D01*
X111817457Y-83246949D01*
X111777522Y-83231201D01*
X111777515Y-83231200D01*
X111765031Y-83229916D01*
X111733302Y-83223886D01*
X111721217Y-83220500D01*
X111721214Y-83220500D01*
X111678284Y-83220500D01*
X111668599Y-83220003D01*
X111640849Y-83217150D01*
X111625894Y-83215613D01*
X111625887Y-83215613D01*
X111616201Y-83217283D01*
X111613530Y-83217744D01*
X111581332Y-83220500D01*
X110820760Y-83220500D01*
X110738539Y-83201734D01*
X110672603Y-83149151D01*
X110669536Y-83145200D01*
X110584193Y-83032188D01*
X110563062Y-83004206D01*
X110400150Y-82855692D01*
X110400145Y-82855688D01*
X110212727Y-82739645D01*
X110212722Y-82739642D01*
X110007161Y-82660006D01*
X109878917Y-82636034D01*
X109790468Y-82619500D01*
X109570022Y-82619500D01*
X109492165Y-82634053D01*
X109353328Y-82660006D01*
X109147767Y-82739642D01*
X109147762Y-82739645D01*
X108960344Y-82855688D01*
X108960339Y-82855692D01*
X108799194Y-83002595D01*
X108725789Y-83044118D01*
X108717752Y-83046328D01*
X108602521Y-83075310D01*
X108602517Y-83075311D01*
X108452427Y-83144365D01*
X108452419Y-83144369D01*
X108004609Y-83402912D01*
X107924020Y-83427770D01*
X107840627Y-83415200D01*
X107770945Y-83367692D01*
X107745747Y-83333550D01*
X107289002Y-82542444D01*
X106644978Y-81426963D01*
X112492605Y-81426963D01*
X112504693Y-81538659D01*
X112504694Y-81538662D01*
X112510364Y-81551777D01*
X112514731Y-81561877D01*
X113309597Y-82938622D01*
X113317140Y-82948774D01*
X113324683Y-82958925D01*
X113324685Y-82958927D01*
X113415369Y-83025240D01*
X113415368Y-83025240D01*
X113415370Y-83025241D01*
X113523889Y-83054318D01*
X113635583Y-83042231D01*
X113658800Y-83032192D01*
X114515930Y-82537327D01*
X114536234Y-82522240D01*
X114602549Y-82431553D01*
X114631627Y-82323035D01*
X114619539Y-82211341D01*
X114609501Y-82188123D01*
X114234532Y-81538659D01*
X114142004Y-81378396D01*
X114117146Y-81297807D01*
X114116616Y-81283646D01*
X114116616Y-79866059D01*
X114121931Y-79842773D01*
X119205103Y-79842773D01*
X119234728Y-80112015D01*
X119234728Y-80112016D01*
X119261187Y-80213222D01*
X119303242Y-80374086D01*
X119409185Y-80623391D01*
X119550299Y-80854613D01*
X119608255Y-80924254D01*
X119723570Y-81062820D01*
X119925313Y-81243582D01*
X119925315Y-81243583D01*
X119925317Y-81243585D01*
X120151216Y-81393039D01*
X120151221Y-81393041D01*
X120151225Y-81393044D01*
X120396491Y-81508020D01*
X120473866Y-81531298D01*
X120655875Y-81586058D01*
X120655879Y-81586058D01*
X120655884Y-81586060D01*
X120923876Y-81625500D01*
X120923882Y-81625500D01*
X121126943Y-81625500D01*
X121126946Y-81625500D01*
X121218127Y-81618826D01*
X121329461Y-81610678D01*
X121329464Y-81610677D01*
X121329471Y-81610677D01*
X121367005Y-81602315D01*
X121593853Y-81551784D01*
X121593858Y-81551782D01*
X121593868Y-81551780D01*
X121846873Y-81455014D01*
X122083092Y-81322441D01*
X122297492Y-81156888D01*
X122485501Y-80961881D01*
X122490467Y-80954941D01*
X122549290Y-80872720D01*
X122643114Y-80741579D01*
X122766971Y-80500675D01*
X122854433Y-80244305D01*
X122903634Y-79977933D01*
X122913527Y-79707235D01*
X122883901Y-79437982D01*
X122815387Y-79175912D01*
X122709445Y-78926610D01*
X122568333Y-78695390D01*
X122395060Y-78487180D01*
X122193317Y-78306418D01*
X122193314Y-78306416D01*
X122193312Y-78306414D01*
X121967413Y-78156960D01*
X121967399Y-78156953D01*
X121722139Y-78041980D01*
X121722137Y-78041979D01*
X121462754Y-77963941D01*
X121194756Y-77924500D01*
X121194754Y-77924500D01*
X120991684Y-77924500D01*
X120963197Y-77926584D01*
X120789168Y-77939321D01*
X120789154Y-77939323D01*
X120524776Y-77998215D01*
X120524755Y-77998222D01*
X120271757Y-78094985D01*
X120035539Y-78227557D01*
X119821143Y-78393108D01*
X119821133Y-78393116D01*
X119633124Y-78588123D01*
X119475518Y-78808417D01*
X119475517Y-78808418D01*
X119351657Y-79049329D01*
X119264196Y-79305695D01*
X119214996Y-79572065D01*
X119205103Y-79842763D01*
X119205103Y-79842773D01*
X114121931Y-79842773D01*
X114135382Y-79783838D01*
X114172119Y-79732062D01*
X115294178Y-78610003D01*
X115365587Y-78565134D01*
X115428175Y-78554500D01*
X116249852Y-78554500D01*
X116316550Y-78556779D01*
X116316550Y-78556778D01*
X116316554Y-78556779D01*
X116358278Y-78546610D01*
X116367797Y-78544801D01*
X116410324Y-78538957D01*
X116421830Y-78533958D01*
X116452452Y-78523660D01*
X116464648Y-78520689D01*
X116502068Y-78499648D01*
X116510747Y-78495337D01*
X116550133Y-78478230D01*
X116559868Y-78470309D01*
X116586581Y-78452128D01*
X116597514Y-78445982D01*
X116613502Y-78429992D01*
X116627864Y-78415632D01*
X116635073Y-78409125D01*
X116668369Y-78382037D01*
X116668368Y-78382037D01*
X116668373Y-78382034D01*
X116675608Y-78371782D01*
X116696419Y-78347075D01*
X118587493Y-76456002D01*
X118658902Y-76411133D01*
X118721490Y-76400499D01*
X119404175Y-76400499D01*
X119404179Y-76400499D01*
X119404185Y-76400498D01*
X119404189Y-76400498D01*
X119414430Y-76399310D01*
X119429306Y-76397585D01*
X119429311Y-76397583D01*
X119532076Y-76352208D01*
X119532078Y-76352207D01*
X119532078Y-76352206D01*
X119532080Y-76352206D01*
X119611521Y-76272765D01*
X119611523Y-76272761D01*
X119656899Y-76169994D01*
X119656899Y-76169993D01*
X119656898Y-76169993D01*
X119656900Y-76169991D01*
X119659815Y-76144865D01*
X119659814Y-75155136D01*
X119656900Y-75130009D01*
X119656899Y-75130006D01*
X119656898Y-75130003D01*
X119611523Y-75027238D01*
X119611521Y-75027236D01*
X119611521Y-75027235D01*
X119532080Y-74947794D01*
X119532078Y-74947793D01*
X119532076Y-74947791D01*
X119429309Y-74902415D01*
X119419883Y-74901321D01*
X119404180Y-74899500D01*
X119404175Y-74899500D01*
X117814454Y-74899500D01*
X117814440Y-74899501D01*
X117789325Y-74902414D01*
X117789318Y-74902416D01*
X117686553Y-74947791D01*
X117686551Y-74947793D01*
X117686550Y-74947794D01*
X117607109Y-75027235D01*
X117607108Y-75027236D01*
X117607108Y-75027237D01*
X117607106Y-75027238D01*
X117561730Y-75130005D01*
X117561730Y-75130006D01*
X117561443Y-75132483D01*
X117558817Y-75155125D01*
X117558815Y-75155139D01*
X117558815Y-75837824D01*
X117540049Y-75920045D01*
X117503312Y-75971821D01*
X116085137Y-77389997D01*
X116013728Y-77434866D01*
X115951140Y-77445500D01*
X115129476Y-77445500D01*
X115062761Y-77443221D01*
X115062760Y-77443221D01*
X115062758Y-77443221D01*
X115021047Y-77453385D01*
X115011515Y-77455197D01*
X114968995Y-77461041D01*
X114968988Y-77461043D01*
X114957475Y-77466044D01*
X114926862Y-77476338D01*
X114914673Y-77479308D01*
X114914663Y-77479312D01*
X114877247Y-77500349D01*
X114868559Y-77504665D01*
X114829179Y-77521771D01*
X114819443Y-77529692D01*
X114792746Y-77547863D01*
X114781799Y-77554018D01*
X114751442Y-77584374D01*
X114744240Y-77590874D01*
X114710943Y-77617964D01*
X114710937Y-77617971D01*
X114703703Y-77628219D01*
X114682890Y-77652927D01*
X114293839Y-78041979D01*
X113176723Y-79159095D01*
X113158717Y-79175912D01*
X113127937Y-79204659D01*
X113105636Y-79241331D01*
X113100176Y-79249354D01*
X113074237Y-79283560D01*
X113074232Y-79283568D01*
X113069629Y-79295241D01*
X113055264Y-79324164D01*
X113048744Y-79334886D01*
X113048738Y-79334899D01*
X113037160Y-79376220D01*
X113034068Y-79385416D01*
X113018318Y-79425359D01*
X113018316Y-79425369D01*
X113017032Y-79437853D01*
X113011002Y-79469582D01*
X113007616Y-79481665D01*
X113007616Y-79524590D01*
X113007119Y-79534284D01*
X113002729Y-79576991D01*
X113002729Y-79576995D01*
X113004860Y-79589351D01*
X113007616Y-79621552D01*
X113007616Y-80872720D01*
X112988850Y-80954941D01*
X112936267Y-81020877D01*
X112912867Y-81036831D01*
X112608302Y-81212672D01*
X112588000Y-81227758D01*
X112587995Y-81227762D01*
X112521683Y-81318446D01*
X112492605Y-81426963D01*
X106644978Y-81426963D01*
X106524148Y-81217679D01*
X106499291Y-81137091D01*
X106511860Y-81053698D01*
X106559368Y-80984017D01*
X106632405Y-80941849D01*
X106670770Y-80934238D01*
X106778506Y-80924256D01*
X106778513Y-80924254D01*
X106778515Y-80924254D01*
X106893142Y-80891639D01*
X106977360Y-80887187D01*
X107013456Y-80897200D01*
X107018083Y-80898993D01*
X107234777Y-80939500D01*
X107234780Y-80939500D01*
X107455220Y-80939500D01*
X107455223Y-80939500D01*
X107671917Y-80898993D01*
X107877477Y-80819358D01*
X108064905Y-80703308D01*
X108227817Y-80554794D01*
X108268592Y-80500798D01*
X108333116Y-80446496D01*
X108414813Y-80425566D01*
X108419815Y-80425500D01*
X109871740Y-80425500D01*
X109877456Y-80425672D01*
X109936085Y-80429219D01*
X109993897Y-80418624D01*
X109999478Y-80417774D01*
X110057845Y-80410688D01*
X110061032Y-80409478D01*
X110094087Y-80400264D01*
X110097439Y-80399650D01*
X110151014Y-80375537D01*
X110156285Y-80373354D01*
X110211226Y-80352518D01*
X110214027Y-80350584D01*
X110243911Y-80333728D01*
X110247028Y-80332326D01*
X110293295Y-80296076D01*
X110297857Y-80292719D01*
X110346229Y-80259332D01*
X110385196Y-80215346D01*
X110389096Y-80211204D01*
X116569299Y-74031003D01*
X116640708Y-73986134D01*
X116703296Y-73975500D01*
X116936143Y-73975500D01*
X116936144Y-73975500D01*
X116955657Y-73973156D01*
X117020585Y-73965360D01*
X117020588Y-73965359D01*
X117020590Y-73965359D01*
X117154975Y-73912364D01*
X117270078Y-73825078D01*
X117357364Y-73709975D01*
X117410359Y-73575590D01*
X117410954Y-73570641D01*
X117420500Y-73491143D01*
X117420500Y-73483294D01*
X117439266Y-73401073D01*
X117476003Y-73349298D01*
X117669607Y-73155693D01*
X117741016Y-73110823D01*
X117808977Y-73101288D01*
X117808977Y-73100500D01*
X117814449Y-73100499D01*
X117814450Y-73100500D01*
X119404179Y-73100499D01*
X119404185Y-73100498D01*
X119404189Y-73100498D01*
X119414430Y-73099310D01*
X119429306Y-73097585D01*
X119429311Y-73097583D01*
X119532076Y-73052208D01*
X119532078Y-73052207D01*
X119532078Y-73052206D01*
X119532080Y-73052206D01*
X119611521Y-72972765D01*
X119637188Y-72914635D01*
X119656899Y-72869994D01*
X119656899Y-72869993D01*
X119656898Y-72869993D01*
X119656900Y-72869991D01*
X119659815Y-72844865D01*
X119659814Y-72333294D01*
X119678580Y-72251074D01*
X119715318Y-72199298D01*
X120108615Y-71806003D01*
X120180024Y-71761134D01*
X120242611Y-71750500D01*
X122269315Y-71750500D01*
X122351536Y-71769266D01*
G37*
G04 #@! TD.AperFunction*
G04 #@! TA.AperFunction,Conductor*
G36*
X134139933Y-75840729D02*
G01*
X134209614Y-75888237D01*
X134234813Y-75922380D01*
X134251121Y-75950627D01*
X136381051Y-79639777D01*
X136388563Y-79652787D01*
X136413421Y-79733376D01*
X136400852Y-79816769D01*
X136388563Y-79842287D01*
X134266382Y-83518014D01*
X134209019Y-83579836D01*
X134130514Y-83610647D01*
X134046414Y-83604345D01*
X134007523Y-83587377D01*
X133397819Y-83235365D01*
X133397813Y-83235362D01*
X133397811Y-83235361D01*
X133247723Y-83166309D01*
X133132490Y-83137327D01*
X133057330Y-83099073D01*
X133051058Y-83093602D01*
X133007964Y-83054317D01*
X132911334Y-82966226D01*
X132863215Y-82896966D01*
X132849500Y-82826185D01*
X132849500Y-76611272D01*
X132868266Y-76529051D01*
X132920849Y-76463115D01*
X132939236Y-76450159D01*
X133014905Y-76403308D01*
X133176051Y-76256403D01*
X133249454Y-76214882D01*
X133257495Y-76212670D01*
X133372726Y-76183689D01*
X133522819Y-76114635D01*
X133975952Y-75853017D01*
X134056539Y-75828160D01*
X134139933Y-75840729D01*
G37*
G04 #@! TD.AperFunction*
G04 #@! TA.AperFunction,Conductor*
G36*
X129443340Y-67667225D02*
G01*
X129502974Y-67726859D01*
X129506632Y-67732929D01*
X131106775Y-70504458D01*
X131131633Y-70585047D01*
X131119064Y-70668440D01*
X131071556Y-70738121D01*
X131037413Y-70763320D01*
X130533323Y-71054357D01*
X130398470Y-71149816D01*
X130398467Y-71149818D01*
X130312378Y-71238600D01*
X130241668Y-71284563D01*
X130211160Y-71292954D01*
X130194306Y-71296104D01*
X130168083Y-71301007D01*
X130168081Y-71301007D01*
X130168079Y-71301008D01*
X129962522Y-71380642D01*
X129962517Y-71380645D01*
X129775099Y-71496688D01*
X129775094Y-71496692D01*
X129612184Y-71645204D01*
X129479334Y-71821126D01*
X129381073Y-72018457D01*
X129320745Y-72230488D01*
X129320744Y-72230491D01*
X129320744Y-72230494D01*
X129300404Y-72450000D01*
X129320744Y-72669506D01*
X129320744Y-72669508D01*
X129320745Y-72669511D01*
X129381073Y-72881542D01*
X129427098Y-72973970D01*
X129479334Y-73078874D01*
X129612183Y-73254794D01*
X129728667Y-73360983D01*
X129776784Y-73430240D01*
X129790500Y-73501023D01*
X129790500Y-80992842D01*
X129771734Y-81075063D01*
X129719151Y-81140999D01*
X129643168Y-81177591D01*
X129558832Y-81177591D01*
X129506250Y-81156954D01*
X129419192Y-81106691D01*
X129357370Y-81049328D01*
X129326559Y-80970822D01*
X129324442Y-80942579D01*
X129324442Y-79843530D01*
X129324615Y-79837808D01*
X129328161Y-79779187D01*
X129317572Y-79721406D01*
X129316715Y-79715779D01*
X129309630Y-79657427D01*
X129309629Y-79657424D01*
X129309629Y-79657423D01*
X129308418Y-79654230D01*
X129299208Y-79621189D01*
X129298593Y-79617838D01*
X129298592Y-79617837D01*
X129298592Y-79617833D01*
X129274477Y-79564250D01*
X129272286Y-79558960D01*
X129251904Y-79505216D01*
X129241074Y-79461691D01*
X129223392Y-79321206D01*
X129167353Y-79188062D01*
X129107821Y-79113162D01*
X129071353Y-79037120D01*
X129066670Y-78995252D01*
X129066670Y-73994428D01*
X129066843Y-73988706D01*
X129070389Y-73930085D01*
X129067142Y-73912366D01*
X129059798Y-73872293D01*
X129058943Y-73866677D01*
X129051858Y-73808325D01*
X129051857Y-73808322D01*
X129051857Y-73808321D01*
X129050646Y-73805128D01*
X129041436Y-73772087D01*
X129040821Y-73768736D01*
X129040820Y-73768735D01*
X129040820Y-73768731D01*
X129016705Y-73715148D01*
X129014523Y-73709881D01*
X128993688Y-73654944D01*
X128991744Y-73652127D01*
X128974898Y-73622256D01*
X128973497Y-73619144D01*
X128973496Y-73619143D01*
X128973496Y-73619142D01*
X128937250Y-73572879D01*
X128933880Y-73568299D01*
X128900502Y-73519941D01*
X128867996Y-73491143D01*
X128856536Y-73480990D01*
X128852368Y-73477066D01*
X127026003Y-71650702D01*
X126981134Y-71579293D01*
X126970500Y-71516705D01*
X126970500Y-71433294D01*
X126989266Y-71351073D01*
X127026000Y-71299300D01*
X128056204Y-70269095D01*
X128060346Y-70265196D01*
X128104332Y-70226229D01*
X128137719Y-70177857D01*
X128141076Y-70173295D01*
X128177326Y-70127028D01*
X128178728Y-70123911D01*
X128195584Y-70094027D01*
X128197518Y-70091226D01*
X128218354Y-70036285D01*
X128220542Y-70031004D01*
X128244650Y-69977439D01*
X128245264Y-69974087D01*
X128254480Y-69941029D01*
X128255688Y-69937845D01*
X128262774Y-69879478D01*
X128263624Y-69873897D01*
X128274219Y-69816085D01*
X128270672Y-69757456D01*
X128270500Y-69751740D01*
X128270500Y-68700827D01*
X128289266Y-68618606D01*
X128332335Y-68560785D01*
X128496302Y-68411309D01*
X128496302Y-68411307D01*
X128496306Y-68411305D01*
X128629155Y-68235385D01*
X128657597Y-68178264D01*
X128711044Y-68113028D01*
X128735021Y-68097179D01*
X128841180Y-68038049D01*
X128844385Y-68036264D01*
X128971491Y-67930716D01*
X129208524Y-67693682D01*
X129279932Y-67648813D01*
X129363737Y-67639370D01*
X129443340Y-67667225D01*
G37*
G04 #@! TD.AperFunction*
G04 #@! TA.AperFunction,Conductor*
G36*
X121448221Y-66443404D02*
G01*
X121514157Y-66495987D01*
X121550749Y-66571970D01*
X121555500Y-66614138D01*
X121555500Y-67375995D01*
X121570744Y-67540506D01*
X121570744Y-67540508D01*
X121570745Y-67540511D01*
X121570745Y-67540514D01*
X121605351Y-67662142D01*
X121609802Y-67746360D01*
X121605351Y-67765858D01*
X121570745Y-67887485D01*
X121570745Y-67887488D01*
X121570744Y-67887491D01*
X121570744Y-67887494D01*
X121550404Y-68107000D01*
X121570744Y-68326506D01*
X121570744Y-68326508D01*
X121570745Y-68326511D01*
X121631073Y-68538542D01*
X121670941Y-68618606D01*
X121729334Y-68735874D01*
X121862183Y-68911794D01*
X121862184Y-68911795D01*
X122025094Y-69060307D01*
X122025099Y-69060311D01*
X122146440Y-69135441D01*
X122212523Y-69176358D01*
X122418083Y-69255993D01*
X122634777Y-69296500D01*
X122634780Y-69296500D01*
X122855220Y-69296500D01*
X122855223Y-69296500D01*
X123071917Y-69255993D01*
X123277477Y-69176358D01*
X123464905Y-69060308D01*
X123627817Y-68911794D01*
X123760666Y-68735874D01*
X123858928Y-68538538D01*
X123919256Y-68326506D01*
X123939596Y-68107000D01*
X123919256Y-67887494D01*
X123884646Y-67765857D01*
X123880196Y-67681642D01*
X123884647Y-67662142D01*
X123919256Y-67540506D01*
X123934500Y-67375995D01*
X123934500Y-66614138D01*
X123953266Y-66531917D01*
X124005849Y-66465981D01*
X124081832Y-66429389D01*
X124124000Y-66424638D01*
X126655152Y-66424638D01*
X126737373Y-66443404D01*
X126803309Y-66495987D01*
X126839901Y-66571970D01*
X126839901Y-66656306D01*
X126803309Y-66732289D01*
X126782817Y-66754180D01*
X126730675Y-66801712D01*
X126597823Y-66977637D01*
X126499562Y-67174968D01*
X126439234Y-67386999D01*
X126439233Y-67387002D01*
X126439233Y-67387005D01*
X126418893Y-67606511D01*
X126439233Y-67826017D01*
X126439233Y-67826019D01*
X126439234Y-67826022D01*
X126499562Y-68038053D01*
X126536896Y-68113028D01*
X126597823Y-68235385D01*
X126730672Y-68411305D01*
X126857667Y-68527077D01*
X126905784Y-68596333D01*
X126919500Y-68667116D01*
X126919500Y-69416705D01*
X126900734Y-69498926D01*
X126863997Y-69550702D01*
X126070702Y-70343997D01*
X125999293Y-70388866D01*
X125936705Y-70399500D01*
X119907575Y-70399500D01*
X119901858Y-70399327D01*
X119843230Y-70395781D01*
X119843229Y-70395781D01*
X119785444Y-70406369D01*
X119779791Y-70407229D01*
X119721467Y-70414312D01*
X119718263Y-70415528D01*
X119685244Y-70424732D01*
X119681883Y-70425347D01*
X119681872Y-70425351D01*
X119628297Y-70449462D01*
X119623012Y-70451651D01*
X119568090Y-70472480D01*
X119568082Y-70472484D01*
X119565260Y-70474433D01*
X119535422Y-70491262D01*
X119532291Y-70492671D01*
X119532284Y-70492675D01*
X119486030Y-70528912D01*
X119481422Y-70532302D01*
X119433088Y-70565665D01*
X119394151Y-70609615D01*
X119390228Y-70613782D01*
X118460015Y-71543997D01*
X118388606Y-71588866D01*
X118326018Y-71599500D01*
X117814454Y-71599500D01*
X117814440Y-71599501D01*
X117789325Y-71602414D01*
X117789318Y-71602416D01*
X117670487Y-71654886D01*
X117669178Y-71651922D01*
X117617542Y-71672320D01*
X117588883Y-71674500D01*
X117543260Y-71674500D01*
X117537543Y-71674327D01*
X117478915Y-71670781D01*
X117478914Y-71670781D01*
X117421129Y-71681369D01*
X117415476Y-71682229D01*
X117357152Y-71689312D01*
X117353948Y-71690528D01*
X117320929Y-71699732D01*
X117317568Y-71700347D01*
X117317557Y-71700351D01*
X117263982Y-71724462D01*
X117258697Y-71726651D01*
X117203775Y-71747480D01*
X117203770Y-71747483D01*
X117200944Y-71749434D01*
X117171109Y-71766261D01*
X117167973Y-71767672D01*
X117167972Y-71767673D01*
X117121730Y-71803902D01*
X117117120Y-71807293D01*
X117068770Y-71840668D01*
X117029829Y-71884623D01*
X117025906Y-71888791D01*
X116495702Y-72418996D01*
X116424293Y-72463866D01*
X116361705Y-72474500D01*
X116353856Y-72474500D01*
X116347672Y-72475242D01*
X116269414Y-72484639D01*
X116269406Y-72484641D01*
X116135030Y-72537633D01*
X116135020Y-72537639D01*
X116019926Y-72624918D01*
X116019921Y-72624923D01*
X115932632Y-72740029D01*
X115926283Y-72751322D01*
X115923889Y-72749976D01*
X115893699Y-72795997D01*
X109670702Y-79018997D01*
X109599293Y-79063866D01*
X109536705Y-79074500D01*
X108419815Y-79074500D01*
X108337594Y-79055734D01*
X108271658Y-79003151D01*
X108268615Y-78999231D01*
X108227817Y-78945206D01*
X108064905Y-78796692D01*
X108064900Y-78796688D01*
X107877482Y-78680645D01*
X107877477Y-78680642D01*
X107671916Y-78601006D01*
X107536766Y-78575743D01*
X107455223Y-78560500D01*
X107234777Y-78560500D01*
X107234775Y-78560500D01*
X107018084Y-78601005D01*
X107018078Y-78601007D01*
X107013443Y-78602803D01*
X107009999Y-78603306D01*
X107009656Y-78603404D01*
X107009643Y-78603358D01*
X106929994Y-78614999D01*
X106893144Y-78608360D01*
X106778514Y-78575745D01*
X106778500Y-78575743D01*
X106668076Y-78565510D01*
X106587937Y-78539237D01*
X106527135Y-78480795D01*
X106497710Y-78401759D01*
X106505492Y-78317783D01*
X106521446Y-78282077D01*
X107867510Y-75950624D01*
X107924871Y-75888805D01*
X108003376Y-75857994D01*
X108087476Y-75864296D01*
X108126370Y-75881265D01*
X108582939Y-76144865D01*
X108617182Y-76164635D01*
X108767274Y-76233689D01*
X108851189Y-76254794D01*
X108882504Y-76262670D01*
X108957665Y-76300924D01*
X108963949Y-76306405D01*
X109125088Y-76453303D01*
X109125099Y-76453311D01*
X109209745Y-76505721D01*
X109312523Y-76569358D01*
X109518083Y-76648993D01*
X109734777Y-76689500D01*
X109734780Y-76689500D01*
X109955220Y-76689500D01*
X109955223Y-76689500D01*
X110171917Y-76648993D01*
X110377477Y-76569358D01*
X110564905Y-76453308D01*
X110727817Y-76304794D01*
X110860666Y-76128874D01*
X110870297Y-76109530D01*
X110923744Y-76044296D01*
X111000204Y-76008711D01*
X111039930Y-76004500D01*
X111460537Y-76004500D01*
X111527235Y-76006779D01*
X111527235Y-76006778D01*
X111527239Y-76006779D01*
X111568963Y-75996610D01*
X111578482Y-75994801D01*
X111621009Y-75988957D01*
X111632515Y-75983958D01*
X111663137Y-75973660D01*
X111675333Y-75970689D01*
X111712753Y-75949648D01*
X111721432Y-75945337D01*
X111760818Y-75928230D01*
X111770553Y-75920309D01*
X111797266Y-75902128D01*
X111808199Y-75895982D01*
X111824187Y-75879992D01*
X111838549Y-75865632D01*
X111845758Y-75859125D01*
X111879054Y-75832037D01*
X111879053Y-75832037D01*
X111879058Y-75832034D01*
X111886293Y-75821782D01*
X111907104Y-75797075D01*
X118415297Y-69288882D01*
X118486704Y-69244015D01*
X118570509Y-69234573D01*
X118617747Y-69246177D01*
X118643083Y-69255993D01*
X118859777Y-69296500D01*
X118859780Y-69296500D01*
X119080220Y-69296500D01*
X119080223Y-69296500D01*
X119296917Y-69255993D01*
X119502477Y-69176358D01*
X119689905Y-69060308D01*
X119852817Y-68911794D01*
X119985666Y-68735874D01*
X120083928Y-68538538D01*
X120144256Y-68326506D01*
X120164596Y-68107000D01*
X120144256Y-67887494D01*
X120109646Y-67765857D01*
X120105196Y-67681642D01*
X120109647Y-67662142D01*
X120144256Y-67540506D01*
X120159500Y-67375995D01*
X120159500Y-66614138D01*
X120178266Y-66531917D01*
X120230849Y-66465981D01*
X120306832Y-66429389D01*
X120349000Y-66424638D01*
X121366000Y-66424638D01*
X121448221Y-66443404D01*
G37*
G04 #@! TD.AperFunction*
G04 #@! TA.AperFunction,Conductor*
G36*
X117673221Y-66443404D02*
G01*
X117739157Y-66495987D01*
X117775749Y-66571970D01*
X117780500Y-66614138D01*
X117780500Y-67375995D01*
X117795744Y-67540506D01*
X117795744Y-67540508D01*
X117795745Y-67540511D01*
X117795745Y-67540514D01*
X117830351Y-67662142D01*
X117834802Y-67746360D01*
X117830351Y-67765858D01*
X117795745Y-67887485D01*
X117795745Y-67887488D01*
X117795744Y-67887491D01*
X117795744Y-67887494D01*
X117775404Y-68107000D01*
X117787300Y-68235385D01*
X117788687Y-68250343D01*
X117777587Y-68333945D01*
X117733992Y-68401825D01*
X113189491Y-72946326D01*
X113118082Y-72991195D01*
X113034277Y-73000637D01*
X112954674Y-72972783D01*
X112895040Y-72913149D01*
X112867186Y-72833546D01*
X112876628Y-72749741D01*
X112885854Y-72727875D01*
X112908928Y-72681538D01*
X112969256Y-72469506D01*
X112989596Y-72250000D01*
X112969256Y-72030494D01*
X112908928Y-71818462D01*
X112903366Y-71807293D01*
X112874556Y-71749434D01*
X112810666Y-71621126D01*
X112677817Y-71445206D01*
X112578647Y-71354801D01*
X112514905Y-71296692D01*
X112514900Y-71296688D01*
X112327482Y-71180645D01*
X112327477Y-71180642D01*
X112121918Y-71101007D01*
X112078839Y-71092954D01*
X112001466Y-71059398D01*
X111977618Y-71038598D01*
X111891528Y-70949815D01*
X111813329Y-70894460D01*
X111756681Y-70854360D01*
X111435119Y-70668706D01*
X111210661Y-70539115D01*
X111148839Y-70481752D01*
X111118028Y-70403247D01*
X111124330Y-70319147D01*
X111141299Y-70280253D01*
X111147741Y-70269096D01*
X113312635Y-66519387D01*
X113369998Y-66457566D01*
X113448503Y-66426755D01*
X113476747Y-66424638D01*
X117591000Y-66424638D01*
X117673221Y-66443404D01*
G37*
G04 #@! TD.AperFunction*
G04 #@! TD*
M02*
