G04 #@! TF.GenerationSoftware,KiCad,Pcbnew,7.0.8*
G04 #@! TF.CreationDate,2024-03-08T23:23:19+05:00*
G04 #@! TF.ProjectId,Ws2812 PCB,57733238-3132-4205-9043-422e6b696361,1*
G04 #@! TF.SameCoordinates,Original*
G04 #@! TF.FileFunction,Legend,Bot*
G04 #@! TF.FilePolarity,Positive*
%FSLAX46Y46*%
G04 Gerber Fmt 4.6, Leading zero omitted, Abs format (unit mm)*
G04 Created by KiCad (PCBNEW 7.0.8) date 2024-03-08 23:23:19*
%MOMM*%
%LPD*%
G01*
G04 APERTURE LIST*
%ADD10C,1.389062*%
%ADD11C,0.000000*%
G04 APERTURE END LIST*
D10*
X132461241Y-79775002D02*
X126760271Y-89649350D01*
X109657389Y-79775002D02*
X115358301Y-69900651D01*
D11*
G36*
X124250592Y-83567242D02*
G01*
X126165583Y-83567242D01*
X126165583Y-81711355D01*
X127046249Y-81711355D01*
X127046249Y-86073308D01*
X126165583Y-86073308D01*
X126165583Y-84255820D01*
X124250592Y-84255820D01*
X124250592Y-86073308D01*
X123369927Y-86073308D01*
X123369927Y-81711355D01*
X124250592Y-81711355D01*
X124250592Y-83567242D01*
G37*
G36*
X124120556Y-76863794D02*
G01*
X126387228Y-73873083D01*
X127046249Y-73873083D01*
X127046249Y-78235027D01*
X126257202Y-78235027D01*
X126257202Y-75288646D01*
X123999390Y-78235027D01*
X123340349Y-78235027D01*
X123340349Y-73873083D01*
X124120556Y-73873083D01*
X124120556Y-76863794D01*
G37*
G36*
X118839873Y-76913105D02*
G01*
X118833409Y-76990634D01*
X118824358Y-77066963D01*
X118812722Y-77142091D01*
X118798500Y-77216019D01*
X118781691Y-77288747D01*
X118762297Y-77360275D01*
X118751114Y-77395460D01*
X118738959Y-77430091D01*
X118725833Y-77464168D01*
X118711735Y-77497691D01*
X118696665Y-77530660D01*
X118680624Y-77563076D01*
X118663612Y-77594937D01*
X118645629Y-77626244D01*
X118626675Y-77656997D01*
X118606750Y-77687196D01*
X118585855Y-77716841D01*
X118563989Y-77745932D01*
X118541153Y-77774469D01*
X118517346Y-77802452D01*
X118492570Y-77829881D01*
X118466824Y-77856755D01*
X118439935Y-77882995D01*
X118411730Y-77908519D01*
X118382209Y-77933327D01*
X118351372Y-77957419D01*
X118319219Y-77980796D01*
X118285752Y-78003456D01*
X118250969Y-78025401D01*
X118214870Y-78046630D01*
X118177457Y-78067144D01*
X118138729Y-78086941D01*
X118098686Y-78106023D01*
X118057328Y-78124389D01*
X118014656Y-78142040D01*
X117970670Y-78158974D01*
X117925369Y-78175193D01*
X117878755Y-78190696D01*
X117780895Y-78219096D01*
X117676480Y-78243709D01*
X117565509Y-78264534D01*
X117447983Y-78281573D01*
X117323905Y-78294824D01*
X117193275Y-78304290D01*
X117056094Y-78309969D01*
X116912363Y-78311862D01*
X116774380Y-78309876D01*
X116642683Y-78303920D01*
X116579191Y-78299453D01*
X116517270Y-78293993D01*
X116456919Y-78287540D01*
X116398138Y-78280094D01*
X116340926Y-78271656D01*
X116285284Y-78262225D01*
X116231211Y-78251802D01*
X116178707Y-78240385D01*
X116127771Y-78227976D01*
X116078403Y-78214574D01*
X116030603Y-78200179D01*
X115984371Y-78184792D01*
X115939564Y-78168169D01*
X115896004Y-78150806D01*
X115853691Y-78132705D01*
X115812623Y-78113865D01*
X115772803Y-78094286D01*
X115734228Y-78073968D01*
X115696900Y-78052911D01*
X115660819Y-78031115D01*
X115625984Y-78008580D01*
X115592395Y-77985307D01*
X115560053Y-77961295D01*
X115528957Y-77936544D01*
X115499108Y-77911055D01*
X115470504Y-77884827D01*
X115443148Y-77857861D01*
X115417037Y-77830155D01*
X115391663Y-77801838D01*
X115367259Y-77773036D01*
X115343825Y-77743750D01*
X115321360Y-77713978D01*
X115299865Y-77683722D01*
X115279339Y-77652980D01*
X115259784Y-77621754D01*
X115241198Y-77590043D01*
X115223582Y-77557847D01*
X115206935Y-77525167D01*
X115191258Y-77492001D01*
X115176551Y-77458351D01*
X115162813Y-77424216D01*
X115150046Y-77389595D01*
X115138247Y-77354490D01*
X115127419Y-77318901D01*
X115108025Y-77245988D01*
X115091216Y-77172061D01*
X115076994Y-77097118D01*
X115065358Y-77021160D01*
X115056307Y-76944186D01*
X115049843Y-76866196D01*
X115049144Y-76851967D01*
X115925335Y-76851967D01*
X115926293Y-76906640D01*
X115929168Y-76959096D01*
X115933958Y-77009336D01*
X115940665Y-77057359D01*
X115949287Y-77103166D01*
X115959826Y-77146756D01*
X115972281Y-77188130D01*
X115979228Y-77207986D01*
X115986653Y-77227288D01*
X115994557Y-77246036D01*
X116002940Y-77264229D01*
X116011802Y-77281868D01*
X116021144Y-77298954D01*
X116030964Y-77315485D01*
X116041263Y-77331462D01*
X116052042Y-77346884D01*
X116063299Y-77361753D01*
X116075035Y-77376067D01*
X116087251Y-77389828D01*
X116099946Y-77403034D01*
X116113119Y-77415686D01*
X116126772Y-77427784D01*
X116140903Y-77439328D01*
X116155514Y-77450318D01*
X116170604Y-77460753D01*
X116202244Y-77480435D01*
X116235846Y-77498847D01*
X116271412Y-77515990D01*
X116308940Y-77531863D01*
X116348430Y-77546466D01*
X116389884Y-77559800D01*
X116433300Y-77571864D01*
X116478678Y-77582657D01*
X116526019Y-77592182D01*
X116575323Y-77600436D01*
X116626590Y-77607420D01*
X116679819Y-77613135D01*
X116735011Y-77617579D01*
X116792165Y-77620754D01*
X116851283Y-77622659D01*
X116912363Y-77623294D01*
X116972860Y-77622671D01*
X117031719Y-77620800D01*
X117088938Y-77617683D01*
X117144518Y-77613319D01*
X117198459Y-77607708D01*
X117250762Y-77600851D01*
X117301426Y-77592747D01*
X117350452Y-77583396D01*
X117397839Y-77572798D01*
X117443588Y-77560954D01*
X117487699Y-77547863D01*
X117530173Y-77533525D01*
X117571008Y-77517941D01*
X117610206Y-77501111D01*
X117647767Y-77483033D01*
X117683690Y-77463710D01*
X117717680Y-77442273D01*
X117749477Y-77418597D01*
X117779081Y-77392681D01*
X117806492Y-77364525D01*
X117831710Y-77334130D01*
X117854736Y-77301495D01*
X117875568Y-77266621D01*
X117894208Y-77229507D01*
X117910655Y-77190153D01*
X117924908Y-77148560D01*
X117936969Y-77104727D01*
X117946837Y-77058654D01*
X117954513Y-77010342D01*
X117959995Y-76959790D01*
X117963284Y-76906998D01*
X117964381Y-76851967D01*
X117964381Y-75270916D01*
X117963284Y-75215875D01*
X117959995Y-75163051D01*
X117954513Y-75112442D01*
X117946837Y-75064051D01*
X117942178Y-75040686D01*
X117936969Y-75017875D01*
X117931213Y-74995619D01*
X117924908Y-74973916D01*
X117918056Y-74952768D01*
X117910655Y-74932174D01*
X117902705Y-74912133D01*
X117894208Y-74892647D01*
X117885162Y-74873715D01*
X117875568Y-74855337D01*
X117865426Y-74837514D01*
X117854736Y-74820244D01*
X117843497Y-74803528D01*
X117831710Y-74787367D01*
X117819375Y-74771759D01*
X117806492Y-74756706D01*
X117793061Y-74742207D01*
X117779081Y-74728261D01*
X117764553Y-74714870D01*
X117749477Y-74702033D01*
X117733852Y-74689750D01*
X117717680Y-74678022D01*
X117700959Y-74666847D01*
X117683690Y-74656226D01*
X117647434Y-74635827D01*
X117609583Y-74616744D01*
X117570138Y-74598977D01*
X117529098Y-74582527D01*
X117486464Y-74567392D01*
X117442236Y-74553574D01*
X117396415Y-74541071D01*
X117349000Y-74529885D01*
X117299993Y-74520015D01*
X117249392Y-74511461D01*
X117197200Y-74504223D01*
X117143415Y-74498301D01*
X117088039Y-74493695D01*
X117031071Y-74490405D01*
X116972512Y-74488431D01*
X116912363Y-74487773D01*
X116851643Y-74488442D01*
X116792863Y-74490451D01*
X116736023Y-74493799D01*
X116681122Y-74498486D01*
X116628160Y-74504513D01*
X116577138Y-74511878D01*
X116528055Y-74520583D01*
X116480911Y-74530627D01*
X116435707Y-74542009D01*
X116392442Y-74554731D01*
X116351117Y-74568792D01*
X116311731Y-74584193D01*
X116274284Y-74600932D01*
X116238777Y-74619010D01*
X116205209Y-74638427D01*
X116173581Y-74659183D01*
X116143520Y-74681659D01*
X116115398Y-74706236D01*
X116089216Y-74732914D01*
X116064973Y-74761692D01*
X116042670Y-74792572D01*
X116022306Y-74825553D01*
X116003882Y-74860634D01*
X115987397Y-74897817D01*
X115972851Y-74937100D01*
X115960245Y-74978485D01*
X115949578Y-75021970D01*
X115940851Y-75067557D01*
X115934063Y-75115245D01*
X115929214Y-75165034D01*
X115926305Y-75216924D01*
X115925335Y-75270916D01*
X115925335Y-76851967D01*
X115049144Y-76851967D01*
X115045964Y-76787190D01*
X115044671Y-76707167D01*
X115044671Y-75433456D01*
X115045964Y-75351262D01*
X115049843Y-75270177D01*
X115056307Y-75190200D01*
X115065358Y-75111332D01*
X115076994Y-75033572D01*
X115091216Y-74956920D01*
X115108025Y-74881376D01*
X115127419Y-74806940D01*
X115137887Y-74770276D01*
X115149348Y-74734166D01*
X115161802Y-74698610D01*
X115175248Y-74663609D01*
X115189688Y-74629162D01*
X115205121Y-74595269D01*
X115221547Y-74561930D01*
X115238965Y-74529145D01*
X115257377Y-74496914D01*
X115276781Y-74465237D01*
X115297179Y-74434115D01*
X115318569Y-74403547D01*
X115340953Y-74373533D01*
X115364329Y-74344073D01*
X115388698Y-74315167D01*
X115414061Y-74286815D01*
X115440183Y-74258753D01*
X115467574Y-74231453D01*
X115496235Y-74204914D01*
X115526166Y-74179137D01*
X115557367Y-74154121D01*
X115589837Y-74129867D01*
X115623577Y-74106375D01*
X115658587Y-74083645D01*
X115694866Y-74061677D01*
X115732415Y-74040470D01*
X115771234Y-74020025D01*
X115811322Y-74000343D01*
X115852680Y-73981422D01*
X115895307Y-73963263D01*
X115939204Y-73945866D01*
X115984371Y-73929231D01*
X116030603Y-73913485D01*
X116078403Y-73898755D01*
X116127771Y-73885041D01*
X116178707Y-73872343D01*
X116285284Y-73849995D01*
X116398138Y-73831710D01*
X116517270Y-73817489D01*
X116642683Y-73807331D01*
X116774380Y-73801236D01*
X116912363Y-73799205D01*
X117056791Y-73801144D01*
X117194576Y-73806962D01*
X117325714Y-73816660D01*
X117450204Y-73830235D01*
X117509955Y-73838478D01*
X117568043Y-73847690D01*
X117624468Y-73857872D01*
X117679229Y-73869024D01*
X117732327Y-73881145D01*
X117783760Y-73894236D01*
X117833529Y-73908297D01*
X117881633Y-73923327D01*
X117928265Y-73938853D01*
X117973580Y-73955141D01*
X118017580Y-73972191D01*
X118060263Y-73990003D01*
X118101631Y-74008576D01*
X118141681Y-74027912D01*
X118180416Y-74048009D01*
X118217835Y-74068869D01*
X118253937Y-74090490D01*
X118288723Y-74112874D01*
X118322193Y-74136020D01*
X118354347Y-74159928D01*
X118385185Y-74184598D01*
X118414706Y-74210030D01*
X118442911Y-74236225D01*
X118469800Y-74263181D01*
X118495518Y-74290794D01*
X118520244Y-74318961D01*
X118543979Y-74347682D01*
X118566723Y-74376957D01*
X118588476Y-74406786D01*
X118609238Y-74437169D01*
X118629008Y-74468106D01*
X118647786Y-74499597D01*
X118665573Y-74531643D01*
X118682368Y-74564242D01*
X118698170Y-74597396D01*
X118712981Y-74631104D01*
X118726799Y-74665366D01*
X118739624Y-74700183D01*
X118751457Y-74735554D01*
X118762297Y-74771479D01*
X118781691Y-74843836D01*
X118798500Y-74917578D01*
X118812722Y-74992705D01*
X118824358Y-75069218D01*
X118833409Y-75147117D01*
X118839873Y-75226400D01*
X118843752Y-75307070D01*
X118845045Y-75389126D01*
X118845045Y-76754445D01*
X118843752Y-76834375D01*
X118842885Y-76851967D01*
X118839873Y-76913105D01*
G37*
D10*
X126760271Y-89649350D02*
X115358301Y-89649350D01*
X115358301Y-69900651D02*
X126760281Y-69900652D01*
X115358301Y-89649350D02*
X109657389Y-79775002D01*
X126760281Y-69900652D02*
X132461241Y-79775002D01*
D11*
G36*
X117340889Y-83135837D02*
G01*
X118251122Y-81711355D01*
X119199752Y-81711355D01*
X117855041Y-83815486D01*
X119258788Y-86073308D01*
X118319087Y-86073308D01*
X117408853Y-84515870D01*
X116412897Y-86073308D01*
X115464266Y-86073308D01*
X116894603Y-83833247D01*
X115514471Y-81711355D01*
X116454271Y-81711355D01*
X117340889Y-83135837D01*
G37*
G36*
X122398962Y-78235027D02*
G01*
X119508719Y-78235027D01*
X119508719Y-77573050D01*
X121524249Y-77573050D01*
X121524249Y-76325939D01*
X119765795Y-76325939D01*
X119765795Y-75693519D01*
X121524249Y-75693519D01*
X121524249Y-74535061D01*
X119541264Y-74535061D01*
X119541264Y-73873083D01*
X122398962Y-73873083D01*
X122398962Y-78235027D01*
G37*
G36*
X122428529Y-86073308D02*
G01*
X119538287Y-86073308D01*
X119538287Y-85411320D01*
X121553718Y-85411320D01*
X121553718Y-84164240D01*
X119795362Y-84164240D01*
X119795362Y-83531819D01*
X121553718Y-83531819D01*
X121553718Y-82373341D01*
X119570831Y-82373341D01*
X119570831Y-81711355D01*
X122428529Y-81711355D01*
X122428529Y-86073308D01*
G37*
M02*
