M48
INCH,TZ
T1C0.0157
T2C0.0394
%
G90
G05
T1
X43984Y-31634
X44575Y-27707
X45057Y-33179
X45500Y-30069
X45943Y-33228
X46120Y-31319
X46553Y-27795
X47498Y-30098
X47547Y-27441
X47557Y-28524
X47606Y-34301
X48138Y-33268
X48600Y-33760
X48984Y-33002
X49112Y-30059
X49152Y-31516
X49329Y-27283
X49644Y-30659
X49673Y-29734
X49713Y-32992
X50520Y-27933
T2
X41602Y-31398
X42262Y-31398
X42610Y-33325
X42675Y-29395
X43181Y-32996
X43246Y-29724
X43443Y-28115
X43443Y-34685
X44014Y-28445
X44014Y-34355
X44561Y-36657
X44623Y-26160
X45028Y-36191
X45089Y-26627
X46829Y-35972
X46829Y-36631
X46839Y-26154
X46839Y-26814
X48325Y-26154
X48325Y-26814
X48335Y-35972
X48335Y-36631
X50212Y-36169
X50242Y-26617
X50678Y-36635
X50708Y-26150
X51317Y-34331
X51376Y-28524
X51888Y-34660
X51947Y-28194
X52035Y-33031
X52085Y-29705
X52607Y-33361
X52656Y-29375
X53039Y-31417
X53699Y-31417
T0
M30
